<svg width="400" height="220" viewBox="0 0 400 220" fill="none" xmlns="http://www.w3.org/2000/svg">
<path d="M0 20C0 8.9543 8.95431 0 20 0H380C391.046 0 400 8.95431 400 20V200C400 211.046 391.046 220 380 220H20C8.95431 220 0 211.046 0 200V20Z" fill="white"/>
<rect x="93" y="142" width="29" height="32" fill="#0032FF"/>
<path d="M103.423 189.504C104.522 189.611 105.359 189.952 105.935 190.528C106.511 191.093 106.799 191.819 106.799 192.704C106.799 193.344 106.639 193.925 106.319 194.448C105.999 194.96 105.519 195.371 104.879 195.68C104.25 195.979 103.477 196.128 102.559 196.128C101.759 196.128 100.991 196.011 100.255 195.776C99.5192 195.531 98.9165 195.195 98.4472 194.768L99.1832 193.504C99.5672 193.867 100.058 194.16 100.655 194.384C101.253 194.597 101.887 194.704 102.559 194.704C103.391 194.704 104.037 194.528 104.495 194.176C104.965 193.824 105.199 193.339 105.199 192.72C105.199 192.101 104.97 191.621 104.511 191.28C104.053 190.939 103.359 190.768 102.431 190.768H101.535V189.648L104.351 186.192H98.9592V184.8H106.351V185.888L103.423 189.504ZM116.085 194.608V196H108.037V194.912L112.597 190.512C113.152 189.979 113.525 189.52 113.717 189.136C113.909 188.741 114.005 188.347 114.005 187.952C114.005 187.365 113.797 186.912 113.381 186.592C112.976 186.261 112.389 186.096 111.621 186.096C110.384 186.096 109.429 186.501 108.757 187.312L107.669 186.368C108.107 185.835 108.677 185.419 109.381 185.12C110.096 184.821 110.891 184.672 111.765 184.672C112.939 184.672 113.872 184.955 114.565 185.52C115.259 186.075 115.605 186.832 115.605 187.792C115.605 188.389 115.477 188.955 115.221 189.488C114.965 190.021 114.48 190.629 113.765 191.312L110.341 194.608H116.085Z" fill="#3D3D3D"/>
<rect x="130" y="110" width="29" height="64" fill="#D252E1"/>
<path d="M139.811 189.2C140.547 189.2 141.203 189.339 141.779 189.616C142.366 189.893 142.824 190.293 143.155 190.816C143.486 191.328 143.651 191.92 143.651 192.592C143.651 193.296 143.475 193.915 143.123 194.448C142.782 194.981 142.307 195.397 141.699 195.696C141.102 195.984 140.43 196.128 139.683 196.128C138.179 196.128 137.016 195.643 136.195 194.672C135.384 193.701 134.979 192.325 134.979 190.544C134.979 189.296 135.198 188.235 135.635 187.36C136.083 186.475 136.702 185.808 137.491 185.36C138.291 184.901 139.219 184.672 140.275 184.672C140.819 184.672 141.331 184.731 141.811 184.848C142.291 184.955 142.707 185.115 143.059 185.328L142.451 186.576C141.918 186.224 141.203 186.048 140.307 186.048C139.144 186.048 138.232 186.411 137.571 187.136C136.91 187.851 136.579 188.896 136.579 190.272C136.579 190.443 136.584 190.576 136.595 190.672C136.915 190.192 137.352 189.829 137.907 189.584C138.472 189.328 139.107 189.2 139.811 189.2ZM139.619 194.832C140.355 194.832 140.952 194.635 141.411 194.24C141.87 193.845 142.099 193.317 142.099 192.656C142.099 191.995 141.864 191.472 141.395 191.088C140.936 190.693 140.318 190.496 139.539 190.496C139.038 190.496 138.59 190.592 138.195 190.784C137.811 190.976 137.507 191.237 137.283 191.568C137.07 191.899 136.963 192.267 136.963 192.672C136.963 193.067 137.064 193.429 137.267 193.76C137.48 194.08 137.784 194.341 138.179 194.544C138.584 194.736 139.064 194.832 139.619 194.832ZM154.598 193.248H152.47V196H150.918V193.248H144.694V192.128L150.422 184.8H152.15L146.662 191.872H150.966V189.44H152.47V191.872H154.598V193.248Z" fill="#3D3D3D"/>
<rect x="167" y="92" width="29" height="82" fill="#D252E1"/>
<path d="M179.374 190.128C180.014 190.373 180.504 190.725 180.846 191.184C181.187 191.643 181.358 192.192 181.358 192.832C181.358 193.504 181.176 194.091 180.814 194.592C180.451 195.083 179.934 195.461 179.262 195.728C178.59 195.995 177.8 196.128 176.894 196.128C175.998 196.128 175.214 195.995 174.542 195.728C173.88 195.461 173.368 195.083 173.006 194.592C172.643 194.091 172.462 193.504 172.462 192.832C172.462 192.192 172.627 191.643 172.958 191.184C173.299 190.725 173.79 190.373 174.43 190.128C173.918 189.883 173.528 189.557 173.262 189.152C172.995 188.747 172.862 188.267 172.862 187.712C172.862 187.093 173.027 186.555 173.358 186.096C173.699 185.637 174.174 185.285 174.782 185.04C175.39 184.795 176.094 184.672 176.894 184.672C177.704 184.672 178.414 184.795 179.022 185.04C179.64 185.285 180.115 185.637 180.446 186.096C180.787 186.555 180.958 187.093 180.958 187.712C180.958 188.256 180.819 188.736 180.542 189.152C180.275 189.557 179.886 189.883 179.374 190.128ZM176.894 185.968C176.136 185.968 175.539 186.133 175.102 186.464C174.664 186.784 174.446 187.221 174.446 187.776C174.446 188.331 174.659 188.768 175.086 189.088C175.523 189.408 176.126 189.568 176.894 189.568C177.672 189.568 178.28 189.408 178.718 189.088C179.166 188.768 179.39 188.331 179.39 187.776C179.39 187.221 179.16 186.784 178.702 186.464C178.254 186.133 177.651 185.968 176.894 185.968ZM176.894 194.832C177.779 194.832 178.478 194.651 178.99 194.288C179.502 193.915 179.758 193.413 179.758 192.784C179.758 192.165 179.502 191.68 178.99 191.328C178.478 190.965 177.779 190.784 176.894 190.784C176.008 190.784 175.315 190.965 174.814 191.328C174.312 191.68 174.062 192.165 174.062 192.784C174.062 193.413 174.312 193.915 174.814 194.288C175.315 194.651 176.008 194.832 176.894 194.832ZM190.695 194.608V196H182.647V194.912L187.207 190.512C187.761 189.979 188.135 189.52 188.327 189.136C188.519 188.741 188.615 188.347 188.615 187.952C188.615 187.365 188.407 186.912 187.991 186.592C187.585 186.261 186.999 186.096 186.231 186.096C184.993 186.096 184.039 186.501 183.367 187.312L182.279 186.368C182.716 185.835 183.287 185.419 183.991 185.12C184.705 184.821 185.5 184.672 186.375 184.672C187.548 184.672 188.481 184.955 189.175 185.52C189.868 186.075 190.215 186.832 190.215 187.792C190.215 188.389 190.087 188.955 189.831 189.488C189.575 190.021 189.089 190.629 188.375 191.312L184.951 194.608H190.695Z" fill="#3D3D3D"/>
<rect x="204" y="78" width="29" height="96" fill="#0032FF"/>
<path d="M213.025 184.672C214.529 184.672 215.686 185.157 216.497 186.128C217.318 187.099 217.729 188.475 217.729 190.256C217.729 191.504 217.505 192.571 217.057 193.456C216.62 194.331 216.001 194.997 215.201 195.456C214.412 195.904 213.489 196.128 212.433 196.128C211.889 196.128 211.377 196.075 210.897 195.968C210.417 195.851 210.001 195.685 209.649 195.472L210.257 194.224C210.801 194.576 211.521 194.752 212.417 194.752C213.58 194.752 214.486 194.395 215.137 193.68C215.798 192.955 216.129 191.904 216.129 190.528V190.128C215.809 190.608 215.366 190.976 214.801 191.232C214.236 191.477 213.601 191.6 212.897 191.6C212.161 191.6 211.5 191.461 210.913 191.184C210.337 190.907 209.884 190.512 209.553 190C209.233 189.477 209.073 188.88 209.073 188.208C209.073 187.504 209.244 186.885 209.585 186.352C209.937 185.819 210.412 185.408 211.009 185.12C211.606 184.821 212.278 184.672 213.025 184.672ZM213.169 190.304C213.67 190.304 214.118 190.208 214.513 190.016C214.908 189.824 215.212 189.563 215.425 189.232C215.649 188.901 215.761 188.533 215.761 188.128C215.761 187.733 215.654 187.376 215.441 187.056C215.238 186.725 214.934 186.464 214.529 186.272C214.134 186.069 213.654 185.968 213.089 185.968C212.353 185.968 211.756 186.165 211.297 186.56C210.849 186.955 210.625 187.483 210.625 188.144C210.625 188.805 210.854 189.333 211.313 189.728C211.772 190.112 212.39 190.304 213.169 190.304ZM224.1 189.2C224.836 189.2 225.492 189.339 226.068 189.616C226.655 189.893 227.113 190.293 227.444 190.816C227.775 191.328 227.94 191.92 227.94 192.592C227.94 193.296 227.764 193.915 227.412 194.448C227.071 194.981 226.596 195.397 225.988 195.696C225.391 195.984 224.719 196.128 223.972 196.128C222.468 196.128 221.305 195.643 220.484 194.672C219.673 193.701 219.268 192.325 219.268 190.544C219.268 189.296 219.487 188.235 219.924 187.36C220.372 186.475 220.991 185.808 221.78 185.36C222.58 184.901 223.508 184.672 224.564 184.672C225.108 184.672 225.62 184.731 226.1 184.848C226.58 184.955 226.996 185.115 227.348 185.328L226.74 186.576C226.207 186.224 225.492 186.048 224.596 186.048C223.433 186.048 222.521 186.411 221.86 187.136C221.199 187.851 220.868 188.896 220.868 190.272C220.868 190.443 220.873 190.576 220.884 190.672C221.204 190.192 221.641 189.829 222.196 189.584C222.761 189.328 223.396 189.2 224.1 189.2ZM223.908 194.832C224.644 194.832 225.241 194.635 225.7 194.24C226.159 193.845 226.388 193.317 226.388 192.656C226.388 191.995 226.153 191.472 225.684 191.088C225.225 190.693 224.607 190.496 223.828 190.496C223.327 190.496 222.879 190.592 222.484 190.784C222.1 190.976 221.796 191.237 221.572 191.568C221.359 191.899 221.252 192.267 221.252 192.672C221.252 193.067 221.353 193.429 221.556 193.76C221.769 194.08 222.073 194.341 222.468 194.544C222.873 194.736 223.353 194.832 223.908 194.832Z" fill="#3D3D3D"/>
<rect x="241" y="86" width="29" height="88" fill="#0032FF"/>
<path d="M252.819 190.128C253.459 190.373 253.95 190.725 254.291 191.184C254.632 191.643 254.803 192.192 254.803 192.832C254.803 193.504 254.622 194.091 254.259 194.592C253.896 195.083 253.379 195.461 252.707 195.728C252.035 195.995 251.246 196.128 250.339 196.128C249.443 196.128 248.659 195.995 247.987 195.728C247.326 195.461 246.814 195.083 246.451 194.592C246.088 194.091 245.907 193.504 245.907 192.832C245.907 192.192 246.072 191.643 246.403 191.184C246.744 190.725 247.235 190.373 247.875 190.128C247.363 189.883 246.974 189.557 246.707 189.152C246.44 188.747 246.307 188.267 246.307 187.712C246.307 187.093 246.472 186.555 246.803 186.096C247.144 185.637 247.619 185.285 248.227 185.04C248.835 184.795 249.539 184.672 250.339 184.672C251.15 184.672 251.859 184.795 252.467 185.04C253.086 185.285 253.56 185.637 253.891 186.096C254.232 186.555 254.403 187.093 254.403 187.712C254.403 188.256 254.264 188.736 253.987 189.152C253.72 189.557 253.331 189.883 252.819 190.128ZM250.339 185.968C249.582 185.968 248.984 186.133 248.547 186.464C248.11 186.784 247.891 187.221 247.891 187.776C247.891 188.331 248.104 188.768 248.531 189.088C248.968 189.408 249.571 189.568 250.339 189.568C251.118 189.568 251.726 189.408 252.163 189.088C252.611 188.768 252.835 188.331 252.835 187.776C252.835 187.221 252.606 186.784 252.147 186.464C251.699 186.133 251.096 185.968 250.339 185.968ZM250.339 194.832C251.224 194.832 251.923 194.651 252.435 194.288C252.947 193.915 253.203 193.413 253.203 192.784C253.203 192.165 252.947 191.68 252.435 191.328C251.923 190.965 251.224 190.784 250.339 190.784C249.454 190.784 248.76 190.965 248.259 191.328C247.758 191.68 247.507 192.165 247.507 192.784C247.507 193.413 247.758 193.915 248.259 194.288C248.76 194.651 249.454 194.832 250.339 194.832ZM263.116 190.128C263.756 190.373 264.247 190.725 264.588 191.184C264.929 191.643 265.1 192.192 265.1 192.832C265.1 193.504 264.919 194.091 264.556 194.592C264.193 195.083 263.676 195.461 263.004 195.728C262.332 195.995 261.543 196.128 260.636 196.128C259.74 196.128 258.956 195.995 258.284 195.728C257.623 195.461 257.111 195.083 256.748 194.592C256.385 194.091 256.204 193.504 256.204 192.832C256.204 192.192 256.369 191.643 256.7 191.184C257.041 190.725 257.532 190.373 258.172 190.128C257.66 189.883 257.271 189.557 257.004 189.152C256.737 188.747 256.604 188.267 256.604 187.712C256.604 187.093 256.769 186.555 257.1 186.096C257.441 185.637 257.916 185.285 258.524 185.04C259.132 184.795 259.836 184.672 260.636 184.672C261.447 184.672 262.156 184.795 262.764 185.04C263.383 185.285 263.857 185.637 264.188 186.096C264.529 186.555 264.7 187.093 264.7 187.712C264.7 188.256 264.561 188.736 264.284 189.152C264.017 189.557 263.628 189.883 263.116 190.128ZM260.636 185.968C259.879 185.968 259.281 186.133 258.844 186.464C258.407 186.784 258.188 187.221 258.188 187.776C258.188 188.331 258.401 188.768 258.828 189.088C259.265 189.408 259.868 189.568 260.636 189.568C261.415 189.568 262.023 189.408 262.46 189.088C262.908 188.768 263.132 188.331 263.132 187.776C263.132 187.221 262.903 186.784 262.444 186.464C261.996 186.133 261.393 185.968 260.636 185.968ZM260.636 194.832C261.521 194.832 262.22 194.651 262.732 194.288C263.244 193.915 263.5 193.413 263.5 192.784C263.5 192.165 263.244 191.68 262.732 191.328C262.22 190.965 261.521 190.784 260.636 190.784C259.751 190.784 259.057 190.965 258.556 191.328C258.055 191.68 257.804 192.165 257.804 192.784C257.804 193.413 258.055 193.915 258.556 194.288C259.057 194.651 259.751 194.832 260.636 194.832Z" fill="#3D3D3D"/>
<rect x="278" y="66" width="29" height="108" fill="#0032FF"/>
<path d="M283.107 184.8V196H281.523V186.192H278.995V184.8H283.107ZM290.133 196.128C289.248 196.128 288.458 195.904 287.765 195.456C287.082 194.997 286.544 194.336 286.149 193.472C285.754 192.608 285.557 191.584 285.557 190.4C285.557 189.216 285.754 188.192 286.149 187.328C286.544 186.464 287.082 185.808 287.765 185.36C288.458 184.901 289.248 184.672 290.133 184.672C291.008 184.672 291.786 184.901 292.469 185.36C293.162 185.808 293.706 186.464 294.101 187.328C294.496 188.192 294.693 189.216 294.693 190.4C294.693 191.584 294.496 192.608 294.101 193.472C293.706 194.336 293.162 194.997 292.469 195.456C291.786 195.904 291.008 196.128 290.133 196.128ZM290.133 194.704C291.029 194.704 291.744 194.336 292.277 193.6C292.821 192.864 293.093 191.797 293.093 190.4C293.093 189.003 292.821 187.936 292.277 187.2C291.744 186.464 291.029 186.096 290.133 186.096C289.226 186.096 288.501 186.464 287.957 187.2C287.424 187.936 287.157 189.003 287.157 190.4C287.157 191.797 287.424 192.864 287.957 193.6C288.501 194.336 289.226 194.704 290.133 194.704ZM300.805 196.128C299.92 196.128 299.13 195.904 298.437 195.456C297.754 194.997 297.216 194.336 296.821 193.472C296.426 192.608 296.229 191.584 296.229 190.4C296.229 189.216 296.426 188.192 296.821 187.328C297.216 186.464 297.754 185.808 298.437 185.36C299.13 184.901 299.92 184.672 300.805 184.672C301.68 184.672 302.458 184.901 303.141 185.36C303.834 185.808 304.378 186.464 304.773 187.328C305.168 188.192 305.365 189.216 305.365 190.4C305.365 191.584 305.168 192.608 304.773 193.472C304.378 194.336 303.834 194.997 303.141 195.456C302.458 195.904 301.68 196.128 300.805 196.128ZM300.805 194.704C301.701 194.704 302.416 194.336 302.949 193.6C303.493 192.864 303.765 191.797 303.765 190.4C303.765 189.003 303.493 187.936 302.949 187.2C302.416 186.464 301.701 186.096 300.805 186.096C299.898 186.096 299.173 186.464 298.629 187.2C298.096 187.936 297.829 189.003 297.829 190.4C297.829 191.797 298.096 192.864 298.629 193.6C299.173 194.336 299.898 194.704 300.805 194.704Z" fill="#3D3D3D"/>
<path d="M107.724 41.18C106.452 41.18 105.3 40.904 104.268 40.352C103.248 39.788 102.444 39.014 101.856 38.03C101.28 37.046 100.992 35.936 100.992 34.7C100.992 33.464 101.286 32.354 101.874 31.37C102.462 30.386 103.266 29.618 104.286 29.066C105.318 28.502 106.47 28.22 107.742 28.22C108.774 28.22 109.716 28.4 110.568 28.76C111.42 29.12 112.14 29.642 112.728 30.326L111.216 31.748C110.304 30.764 109.182 30.272 107.85 30.272C106.986 30.272 106.212 30.464 105.528 30.848C104.844 31.22 104.31 31.742 103.926 32.414C103.542 33.086 103.35 33.848 103.35 34.7C103.35 35.552 103.542 36.314 103.926 36.986C104.31 37.658 104.844 38.186 105.528 38.57C106.212 38.942 106.986 39.128 107.85 39.128C109.182 39.128 110.304 38.63 111.216 37.634L112.728 39.074C112.14 39.758 111.414 40.28 110.55 40.64C109.698 41 108.756 41.18 107.724 41.18ZM118.581 41.126C117.609 41.126 116.733 40.916 115.953 40.496C115.173 40.076 114.561 39.494 114.117 38.75C113.685 37.994 113.469 37.142 113.469 36.194C113.469 35.246 113.685 34.4 114.117 33.656C114.561 32.912 115.173 32.33 115.953 31.91C116.733 31.49 117.609 31.28 118.581 31.28C119.565 31.28 120.447 31.49 121.227 31.91C122.007 32.33 122.613 32.912 123.045 33.656C123.489 34.4 123.711 35.246 123.711 36.194C123.711 37.142 123.489 37.994 123.045 38.75C122.613 39.494 122.007 40.076 121.227 40.496C120.447 40.916 119.565 41.126 118.581 41.126ZM118.581 39.2C119.409 39.2 120.093 38.924 120.633 38.372C121.173 37.82 121.443 37.094 121.443 36.194C121.443 35.294 121.173 34.568 120.633 34.016C120.093 33.464 119.409 33.188 118.581 33.188C117.753 33.188 117.069 33.464 116.529 34.016C116.001 34.568 115.737 35.294 115.737 36.194C115.737 37.094 116.001 37.82 116.529 38.372C117.069 38.924 117.753 39.2 118.581 39.2ZM131.262 31.28C132.198 31.28 133.032 31.484 133.764 31.892C134.508 32.3 135.09 32.876 135.51 33.62C135.93 34.364 136.14 35.222 136.14 36.194C136.14 37.166 135.93 38.03 135.51 38.786C135.09 39.53 134.508 40.106 133.764 40.514C133.032 40.922 132.198 41.126 131.262 41.126C129.966 41.126 128.94 40.694 128.184 39.83V44.492H125.934V31.388H128.076V32.648C128.448 32.192 128.904 31.85 129.444 31.622C129.996 31.394 130.602 31.28 131.262 31.28ZM131.01 39.2C131.838 39.2 132.516 38.924 133.044 38.372C133.584 37.82 133.854 37.094 133.854 36.194C133.854 35.294 133.584 34.568 133.044 34.016C132.516 33.464 131.838 33.188 131.01 33.188C130.47 33.188 129.984 33.314 129.552 33.566C129.12 33.806 128.778 34.154 128.526 34.61C128.274 35.066 128.148 35.594 128.148 36.194C128.148 36.794 128.274 37.322 128.526 37.778C128.778 38.234 129.12 38.588 129.552 38.84C129.984 39.08 130.47 39.2 131.01 39.2ZM145.642 33.296H142.276V41H140.026V33.296H136.642V31.388H145.642V33.296ZM147.274 31.388H149.524V37.724L154.834 31.388H156.886V41H154.636V34.664L149.344 41H147.274V31.388ZM165.24 31.28C166.176 31.28 167.01 31.484 167.742 31.892C168.486 32.3 169.068 32.876 169.488 33.62C169.908 34.364 170.118 35.222 170.118 36.194C170.118 37.166 169.908 38.03 169.488 38.786C169.068 39.53 168.486 40.106 167.742 40.514C167.01 40.922 166.176 41.126 165.24 41.126C163.944 41.126 162.918 40.694 162.162 39.83V44.492H159.912V31.388H162.054V32.648C162.426 32.192 162.882 31.85 163.422 31.622C163.974 31.394 164.58 31.28 165.24 31.28ZM164.988 39.2C165.816 39.2 166.494 38.924 167.022 38.372C167.562 37.82 167.832 37.094 167.832 36.194C167.832 35.294 167.562 34.568 167.022 34.016C166.494 33.464 165.816 33.188 164.988 33.188C164.448 33.188 163.962 33.314 163.53 33.566C163.098 33.806 162.756 34.154 162.504 34.61C162.252 35.066 162.126 35.594 162.126 36.194C162.126 36.794 162.252 37.322 162.504 37.778C162.756 38.234 163.098 38.588 163.53 38.84C163.962 39.08 164.448 39.2 164.988 39.2ZM176.642 41.126C175.67 41.126 174.794 40.916 174.014 40.496C173.234 40.076 172.622 39.494 172.178 38.75C171.746 37.994 171.53 37.142 171.53 36.194C171.53 35.246 171.746 34.4 172.178 33.656C172.622 32.912 173.234 32.33 174.014 31.91C174.794 31.49 175.67 31.28 176.642 31.28C177.626 31.28 178.508 31.49 179.288 31.91C180.068 32.33 180.674 32.912 181.106 33.656C181.55 34.4 181.772 35.246 181.772 36.194C181.772 37.142 181.55 37.994 181.106 38.75C180.674 39.494 180.068 40.076 179.288 40.496C178.508 40.916 177.626 41.126 176.642 41.126ZM176.642 39.2C177.47 39.2 178.154 38.924 178.694 38.372C179.234 37.82 179.504 37.094 179.504 36.194C179.504 35.294 179.234 34.568 178.694 34.016C178.154 33.464 177.47 33.188 176.642 33.188C175.814 33.188 175.13 33.464 174.59 34.016C174.062 34.568 173.798 35.294 173.798 36.194C173.798 37.094 174.062 37.82 174.59 38.372C175.13 38.924 175.814 39.2 176.642 39.2ZM190.96 35.996C192.148 36.356 192.742 37.124 192.742 38.3C192.742 39.164 192.418 39.83 191.77 40.298C191.122 40.766 190.162 41 188.89 41H183.994V31.388H188.692C189.868 31.388 190.786 31.604 191.446 32.036C192.106 32.468 192.436 33.08 192.436 33.872C192.436 34.364 192.304 34.79 192.04 35.15C191.788 35.51 191.428 35.792 190.96 35.996ZM186.136 35.402H188.494C189.658 35.402 190.24 35 190.24 34.196C190.24 33.416 189.658 33.026 188.494 33.026H186.136V35.402ZM188.71 39.362C189.946 39.362 190.564 38.96 190.564 38.156C190.564 37.736 190.42 37.424 190.132 37.22C189.844 37.004 189.394 36.896 188.782 36.896H186.136V39.362H188.71ZM199.135 37.148H197.389V41H195.139V31.388H197.389V35.276H199.189L202.033 31.388H204.445L200.953 36.014L204.679 41H202.033L199.135 37.148ZM209.672 31.28C211.088 31.28 212.168 31.622 212.912 32.306C213.668 32.978 214.046 33.998 214.046 35.366V41H211.922V39.83C211.646 40.25 211.25 40.574 210.734 40.802C210.23 41.018 209.618 41.126 208.898 41.126C208.178 41.126 207.548 41.006 207.008 40.766C206.468 40.514 206.048 40.172 205.748 39.74C205.46 39.296 205.316 38.798 205.316 38.246C205.316 37.382 205.634 36.692 206.27 36.176C206.918 35.648 207.932 35.384 209.312 35.384H211.796V35.24C211.796 34.568 211.592 34.052 211.184 33.692C210.788 33.332 210.194 33.152 209.402 33.152C208.862 33.152 208.328 33.236 207.8 33.404C207.284 33.572 206.846 33.806 206.486 34.106L205.604 32.468C206.108 32.084 206.714 31.79 207.422 31.586C208.13 31.382 208.88 31.28 209.672 31.28ZM209.366 39.488C209.93 39.488 210.428 39.362 210.86 39.11C211.304 38.846 211.616 38.474 211.796 37.994V36.878H209.474C208.178 36.878 207.53 37.304 207.53 38.156C207.53 38.564 207.692 38.888 208.016 39.128C208.34 39.368 208.79 39.488 209.366 39.488ZM231.255 41V34.628L228.015 39.992H227.043L223.857 34.61V41H221.805V31.388H224.163L227.583 37.4L231.165 31.388H233.271L233.289 41H231.255ZM239.889 31.28C241.305 31.28 242.385 31.622 243.129 32.306C243.885 32.978 244.263 33.998 244.263 35.366V41H242.139V39.83C241.863 40.25 241.467 40.574 240.951 40.802C240.447 41.018 239.835 41.126 239.115 41.126C238.395 41.126 237.765 41.006 237.225 40.766C236.685 40.514 236.265 40.172 235.965 39.74C235.677 39.296 235.533 38.798 235.533 38.246C235.533 37.382 235.851 36.692 236.487 36.176C237.135 35.648 238.149 35.384 239.529 35.384H242.013V35.24C242.013 34.568 241.809 34.052 241.401 33.692C241.005 33.332 240.411 33.152 239.619 33.152C239.079 33.152 238.545 33.236 238.017 33.404C237.501 33.572 237.063 33.806 236.703 34.106L235.821 32.468C236.325 32.084 236.931 31.79 237.639 31.586C238.347 31.382 239.097 31.28 239.889 31.28ZM239.583 39.488C240.147 39.488 240.645 39.362 241.077 39.11C241.521 38.846 241.833 38.474 242.013 37.994V36.878H239.691C238.395 36.878 237.747 37.304 237.747 38.156C237.747 38.564 237.909 38.888 238.233 39.128C238.557 39.368 239.007 39.488 239.583 39.488ZM251.421 41.126C250.425 41.126 249.531 40.916 248.739 40.496C247.947 40.076 247.329 39.494 246.885 38.75C246.441 37.994 246.219 37.142 246.219 36.194C246.219 35.246 246.441 34.4 246.885 33.656C247.329 32.912 247.941 32.33 248.721 31.91C249.513 31.49 250.413 31.28 251.421 31.28C252.369 31.28 253.197 31.472 253.905 31.856C254.625 32.24 255.165 32.792 255.525 33.512L253.797 34.52C253.521 34.076 253.173 33.746 252.753 33.53C252.345 33.302 251.895 33.188 251.403 33.188C250.563 33.188 249.867 33.464 249.315 34.016C248.763 34.556 248.487 35.282 248.487 36.194C248.487 37.106 248.757 37.838 249.297 38.39C249.849 38.93 250.551 39.2 251.403 39.2C251.895 39.2 252.345 39.092 252.753 38.876C253.173 38.648 253.521 38.312 253.797 37.868L255.525 38.876C255.153 39.596 254.607 40.154 253.887 40.55C253.179 40.934 252.357 41.126 251.421 41.126ZM261.74 41.126C260.744 41.126 259.85 40.916 259.058 40.496C258.266 40.076 257.648 39.494 257.204 38.75C256.76 37.994 256.538 37.142 256.538 36.194C256.538 35.246 256.76 34.4 257.204 33.656C257.648 32.912 258.26 32.33 259.04 31.91C259.832 31.49 260.732 31.28 261.74 31.28C262.688 31.28 263.516 31.472 264.224 31.856C264.944 32.24 265.484 32.792 265.844 33.512L264.116 34.52C263.84 34.076 263.492 33.746 263.072 33.53C262.664 33.302 262.214 33.188 261.722 33.188C260.882 33.188 260.186 33.464 259.634 34.016C259.082 34.556 258.806 35.282 258.806 36.194C258.806 37.106 259.076 37.838 259.616 38.39C260.168 38.93 260.87 39.2 261.722 39.2C262.214 39.2 262.664 39.092 263.072 38.876C263.492 38.648 263.84 38.312 264.116 37.868L265.844 38.876C265.472 39.596 264.926 40.154 264.206 40.55C263.498 40.934 262.676 41.126 261.74 41.126ZM267.825 31.388H270.075V37.724L275.385 31.388H277.437V41H275.187V34.664L269.895 41H267.825V31.388ZM287.429 35.996C288.617 36.356 289.211 37.124 289.211 38.3C289.211 39.164 288.887 39.83 288.239 40.298C287.591 40.766 286.631 41 285.359 41H280.463V31.388H285.161C286.337 31.388 287.255 31.604 287.915 32.036C288.575 32.468 288.905 33.08 288.905 33.872C288.905 34.364 288.773 34.79 288.509 35.15C288.257 35.51 287.897 35.792 287.429 35.996ZM282.605 35.402H284.963C286.127 35.402 286.709 35 286.709 34.196C286.709 33.416 286.127 33.026 284.963 33.026H282.605V35.402ZM285.179 39.362C286.415 39.362 287.033 38.96 287.033 38.156C287.033 37.736 286.889 37.424 286.601 37.22C286.313 37.004 285.863 36.896 285.251 36.896H282.605V39.362H285.179ZM295.19 31.28C296.606 31.28 297.686 31.622 298.43 32.306C299.186 32.978 299.564 33.998 299.564 35.366V41H297.44V39.83C297.164 40.25 296.768 40.574 296.252 40.802C295.748 41.018 295.136 41.126 294.416 41.126C293.696 41.126 293.066 41.006 292.526 40.766C291.986 40.514 291.566 40.172 291.266 39.74C290.978 39.296 290.834 38.798 290.834 38.246C290.834 37.382 291.152 36.692 291.788 36.176C292.436 35.648 293.45 35.384 294.83 35.384H297.314V35.24C297.314 34.568 297.11 34.052 296.702 33.692C296.306 33.332 295.712 33.152 294.92 33.152C294.38 33.152 293.846 33.236 293.318 33.404C292.802 33.572 292.364 33.806 292.004 34.106L291.122 32.468C291.626 32.084 292.232 31.79 292.94 31.586C293.648 31.382 294.398 31.28 295.19 31.28ZM294.884 39.488C295.448 39.488 295.946 39.362 296.378 39.11C296.822 38.846 297.134 38.474 297.314 37.994V36.878H294.992C293.696 36.878 293.048 37.304 293.048 38.156C293.048 38.564 293.21 38.888 293.534 39.128C293.858 39.368 294.308 39.488 294.884 39.488Z" fill="#141414"/>
<path d="M20 1H380V-1H20V1ZM399 20V200H401V20H399ZM380 219H20V221H380V219ZM1 200V20H-1V200H1ZM20 219C9.50659 219 1 210.493 1 200H-1C-1 211.598 8.40203 221 20 221V219ZM399 200C399 210.493 390.493 219 380 219V221C391.598 221 401 211.598 401 200H399ZM380 1C390.493 1 399 9.50659 399 20H401C401 8.40202 391.598 -1 380 -1V1ZM20 -1C8.40202 -1 -1 8.40201 -1 20H1C1 9.50658 9.50659 1 20 1V-1Z" fill="#141414"/>
</svg>
