<svg width="400" height="220" viewBox="0 0 400 220" fill="none" xmlns="http://www.w3.org/2000/svg">
<path d="M0 20C0 8.9543 8.95431 0 20 0H380C391.046 0 400 8.95431 400 20V200C400 211.046 391.046 220 380 220H20C8.95431 220 0 211.046 0 200V20Z" fill="url(#paint0_linear_107_207321)"/>
<rect x="181" y="67" width="38" height="38" rx="19" fill="white"/>
<path d="M201.529 80.8V92H199.449V82.544H197.081V80.8H201.529Z" fill="#0032FF"/>
<rect x="181" y="67" width="38" height="38" rx="19" stroke="#0032FF" stroke-width="2"/>
<rect x="125" y="107" width="38" height="38" rx="19" fill="white"/>
<path d="M145.529 120.8V132H143.449V122.544H141.081V120.8H145.529Z" fill="#0032FF"/>
<rect x="125" y="107" width="38" height="38" rx="19" stroke="#0032FF" stroke-width="2"/>
<rect x="237" y="107" width="38" height="38" rx="19" fill="white"/>
<path d="M260.16 130.24V132H251.904V130.608L256.352 126.384C256.853 125.904 257.189 125.488 257.36 125.136C257.541 124.773 257.632 124.416 257.632 124.064C257.632 123.541 257.456 123.141 257.104 122.864C256.752 122.587 256.234 122.448 255.552 122.448C254.41 122.448 253.536 122.837 252.928 123.616L251.472 122.496C251.909 121.909 252.496 121.456 253.232 121.136C253.978 120.805 254.81 120.64 255.728 120.64C256.944 120.64 257.914 120.928 258.64 121.504C259.365 122.08 259.728 122.864 259.728 123.856C259.728 124.464 259.6 125.035 259.344 125.568C259.088 126.101 258.597 126.709 257.872 127.392L254.88 130.24H260.16Z" fill="#0032FF"/>
<rect x="237" y="107" width="38" height="38" rx="19" stroke="#0032FF" stroke-width="2"/>
<rect x="97" y="155" width="38" height="38" rx="19" fill="white"/>
<path d="M116.816 173.424C117.85 173.552 118.64 173.904 119.184 174.48C119.728 175.056 120 175.776 120 176.64C120 177.291 119.834 177.883 119.504 178.416C119.173 178.949 118.672 179.376 118 179.696C117.338 180.005 116.528 180.16 115.568 180.16C114.768 180.16 113.994 180.048 113.248 179.824C112.512 179.589 111.882 179.269 111.36 178.864L112.256 177.248C112.661 177.589 113.152 177.861 113.728 178.064C114.314 178.256 114.917 178.352 115.536 178.352C116.272 178.352 116.848 178.203 117.264 177.904C117.69 177.595 117.904 177.179 117.904 176.656C117.904 176.133 117.701 175.728 117.296 175.44C116.901 175.141 116.293 174.992 115.472 174.992H114.448V173.568L116.992 170.544H111.904V168.8H119.536V170.192L116.816 173.424Z" fill="#0032FF"/>
<rect x="97" y="155" width="38" height="38" rx="19" stroke="#0032FF" stroke-width="2"/>
<rect x="153" y="155" width="38" height="38" rx="19" fill="white"/>
<path d="M171.536 173.136C173.115 173.136 174.283 173.445 175.04 174.064C175.797 174.672 176.176 175.504 176.176 176.56C176.176 177.232 176.011 177.84 175.68 178.384C175.349 178.928 174.853 179.36 174.192 179.68C173.531 180 172.715 180.16 171.744 180.16C170.944 180.16 170.171 180.048 169.424 179.824C168.677 179.589 168.048 179.269 167.536 178.864L168.416 177.248C168.832 177.589 169.328 177.861 169.904 178.064C170.491 178.256 171.093 178.352 171.712 178.352C172.448 178.352 173.024 178.203 173.44 177.904C173.867 177.595 174.08 177.173 174.08 176.64C174.08 176.064 173.851 175.632 173.392 175.344C172.944 175.045 172.171 174.896 171.072 174.896H168.368L168.944 168.8H175.52V170.544H170.704L170.464 173.136H171.536Z" fill="#0032FF"/>
<rect x="153" y="155" width="38" height="38" rx="19" stroke="#0032FF" stroke-width="2"/>
<rect x="209" y="155" width="38" height="38" rx="19" fill="white"/>
<path d="M230.749 174.112C231.336 174.379 231.784 174.741 232.093 175.2C232.413 175.648 232.573 176.176 232.573 176.784C232.573 177.467 232.381 178.064 231.997 178.576C231.624 179.088 231.091 179.483 230.397 179.76C229.704 180.027 228.899 180.16 227.981 180.16C227.064 180.16 226.259 180.027 225.565 179.76C224.883 179.483 224.355 179.088 223.981 178.576C223.608 178.064 223.421 177.467 223.421 176.784C223.421 176.176 223.576 175.648 223.885 175.2C224.195 174.741 224.637 174.379 225.213 174.112C224.765 173.867 224.419 173.547 224.173 173.152C223.939 172.747 223.821 172.283 223.821 171.76C223.821 171.131 223.992 170.581 224.333 170.112C224.685 169.643 225.176 169.28 225.805 169.024C226.435 168.768 227.16 168.64 227.981 168.64C228.813 168.64 229.544 168.768 230.173 169.024C230.803 169.28 231.293 169.643 231.645 170.112C231.997 170.581 232.173 171.131 232.173 171.76C232.173 172.283 232.051 172.741 231.805 173.136C231.56 173.531 231.208 173.856 230.749 174.112ZM227.981 170.272C227.331 170.272 226.813 170.411 226.429 170.688C226.056 170.965 225.869 171.355 225.869 171.856C225.869 172.336 226.056 172.72 226.429 173.008C226.813 173.285 227.331 173.424 227.981 173.424C228.643 173.424 229.165 173.285 229.549 173.008C229.933 172.72 230.125 172.336 230.125 171.856C230.125 171.355 229.928 170.965 229.533 170.688C229.149 170.411 228.632 170.272 227.981 170.272ZM227.981 178.528C228.749 178.528 229.357 178.368 229.805 178.048C230.253 177.728 230.477 177.285 230.477 176.72C230.477 176.165 230.253 175.728 229.805 175.408C229.357 175.088 228.749 174.928 227.981 174.928C227.213 174.928 226.611 175.088 226.173 175.408C225.736 175.728 225.517 176.165 225.517 176.72C225.517 177.285 225.736 177.728 226.173 178.048C226.611 178.368 227.213 178.528 227.981 178.528Z" fill="#0032FF"/>
<rect x="209" y="155" width="38" height="38" rx="19" stroke="#0032FF" stroke-width="2"/>
<rect x="265" y="155" width="38" height="38" rx="19" fill="white"/>
<path d="M280.873 168.8V180H278.793V170.544H276.425V168.8H280.873ZM287.863 173.424C288.897 173.552 289.687 173.904 290.231 174.48C290.775 175.056 291.047 175.776 291.047 176.64C291.047 177.291 290.881 177.883 290.551 178.416C290.22 178.949 289.719 179.376 289.047 179.696C288.385 180.005 287.575 180.16 286.615 180.16C285.815 180.16 285.041 180.048 284.295 179.824C283.559 179.589 282.929 179.269 282.407 178.864L283.303 177.248C283.708 177.589 284.199 177.861 284.775 178.064C285.361 178.256 285.964 178.352 286.583 178.352C287.319 178.352 287.895 178.203 288.311 177.904C288.737 177.595 288.951 177.179 288.951 176.656C288.951 176.133 288.748 175.728 288.343 175.44C287.948 175.141 287.34 174.992 286.519 174.992H285.495V173.568L288.039 170.544H282.951V168.8H290.583V170.192L287.863 173.424Z" fill="#0032FF"/>
<rect x="265" y="155" width="38" height="38" rx="19" stroke="#0032FF" stroke-width="2"/>
<path d="M54.2277 28.4V41H51.9237V30.38H45.3897V41H43.0857V28.4H54.2277ZM61.8126 41.126C60.8406 41.126 59.9646 40.916 59.1846 40.496C58.4046 40.076 57.7926 39.494 57.3486 38.75C56.9166 37.994 56.7006 37.142 56.7006 36.194C56.7006 35.246 56.9166 34.4 57.3486 33.656C57.7926 32.912 58.4046 32.33 59.1846 31.91C59.9646 31.49 60.8406 31.28 61.8126 31.28C62.7966 31.28 63.6786 31.49 64.4586 31.91C65.2386 32.33 65.8446 32.912 66.2766 33.656C66.7206 34.4 66.9426 35.246 66.9426 36.194C66.9426 37.142 66.7206 37.994 66.2766 38.75C65.8446 39.494 65.2386 40.076 64.4586 40.496C63.6786 40.916 62.7966 41.126 61.8126 41.126ZM61.8126 39.2C62.6406 39.2 63.3246 38.924 63.8646 38.372C64.4046 37.82 64.6746 37.094 64.6746 36.194C64.6746 35.294 64.4046 34.568 63.8646 34.016C63.3246 33.464 62.6406 33.188 61.8126 33.188C60.9846 33.188 60.3006 33.464 59.7606 34.016C59.2326 34.568 58.9686 35.294 58.9686 36.194C58.9686 37.094 59.2326 37.82 59.7606 38.372C60.3006 38.924 60.9846 39.2 61.8126 39.2ZM73.5393 41.126C72.5433 41.126 71.6493 40.916 70.8573 40.496C70.0653 40.076 69.4473 39.494 69.0033 38.75C68.5593 37.994 68.3373 37.142 68.3373 36.194C68.3373 35.246 68.5593 34.4 69.0033 33.656C69.4473 32.912 70.0593 32.33 70.8393 31.91C71.6313 31.49 72.5313 31.28 73.5393 31.28C74.4873 31.28 75.3153 31.472 76.0233 31.856C76.7433 32.24 77.2833 32.792 77.6433 33.512L75.9153 34.52C75.6393 34.076 75.2913 33.746 74.8713 33.53C74.4633 33.302 74.0133 33.188 73.5213 33.188C72.6813 33.188 71.9853 33.464 71.4333 34.016C70.8813 34.556 70.6053 35.282 70.6053 36.194C70.6053 37.106 70.8753 37.838 71.4153 38.39C71.9673 38.93 72.6693 39.2 73.5213 39.2C74.0133 39.2 74.4633 39.092 74.8713 38.876C75.2913 38.648 75.6393 38.312 75.9153 37.868L77.6433 38.876C77.2713 39.596 76.7253 40.154 76.0053 40.55C75.2973 40.934 74.4753 41.126 73.5393 41.126ZM88.1254 31.388V41H85.8754V33.296H82.2754L82.1854 35.204C82.1254 36.476 82.0054 37.544 81.8254 38.408C81.6574 39.26 81.3634 39.938 80.9434 40.442C80.5354 40.934 79.9714 41.18 79.2514 41.18C78.9154 41.18 78.5014 41.114 78.0094 40.982L78.1174 39.092C78.2854 39.128 78.4294 39.146 78.5494 39.146C79.0054 39.146 79.3474 38.966 79.5754 38.606C79.8034 38.234 79.9474 37.796 80.0074 37.292C80.0794 36.776 80.1394 36.044 80.1874 35.096L80.3494 31.388H88.1254ZM100.156 36.248C100.156 36.404 100.144 36.626 100.12 36.914H92.5776C92.7096 37.622 93.0516 38.186 93.6036 38.606C94.1676 39.014 94.8636 39.218 95.6916 39.218C96.7476 39.218 97.6176 38.87 98.3016 38.174L99.5076 39.56C99.0756 40.076 98.5296 40.466 97.8696 40.73C97.2096 40.994 96.4656 41.126 95.6376 41.126C94.5816 41.126 93.6516 40.916 92.8476 40.496C92.0436 40.076 91.4196 39.494 90.9756 38.75C90.5436 37.994 90.3276 37.142 90.3276 36.194C90.3276 35.258 90.5376 34.418 90.9576 33.674C91.3896 32.918 91.9836 32.33 92.7396 31.91C93.4956 31.49 94.3476 31.28 95.2956 31.28C96.2316 31.28 97.0656 31.49 97.7976 31.91C98.5416 32.318 99.1176 32.9 99.5256 33.656C99.9456 34.4 100.156 35.264 100.156 36.248ZM95.2956 33.08C94.5756 33.08 93.9636 33.296 93.4596 33.728C92.9676 34.148 92.6676 34.712 92.5596 35.42H98.0136C97.9176 34.724 97.6236 34.16 97.1316 33.728C96.6396 33.296 96.0276 33.08 95.2956 33.08ZM112.753 39.092V43.142H110.647V41H103.231V43.142H101.143V39.092H101.593C102.205 39.068 102.619 38.678 102.835 37.922C103.063 37.154 103.213 36.074 103.285 34.682L103.411 31.388H111.331V39.092H112.753ZM105.337 34.844C105.289 35.948 105.199 36.848 105.067 37.544C104.935 38.24 104.695 38.756 104.347 39.092H109.081V33.296H105.391L105.337 34.844ZM119.047 41.126C118.075 41.126 117.199 40.916 116.419 40.496C115.639 40.076 115.027 39.494 114.583 38.75C114.151 37.994 113.935 37.142 113.935 36.194C113.935 35.246 114.151 34.4 114.583 33.656C115.027 32.912 115.639 32.33 116.419 31.91C117.199 31.49 118.075 31.28 119.047 31.28C120.031 31.28 120.913 31.49 121.693 31.91C122.473 32.33 123.079 32.912 123.511 33.656C123.955 34.4 124.177 35.246 124.177 36.194C124.177 37.142 123.955 37.994 123.511 38.75C123.079 39.494 122.473 40.076 121.693 40.496C120.913 40.916 120.031 41.126 119.047 41.126ZM119.047 39.2C119.875 39.2 120.559 38.924 121.099 38.372C121.639 37.82 121.909 37.094 121.909 36.194C121.909 35.294 121.639 34.568 121.099 34.016C120.559 33.464 119.875 33.188 119.047 33.188C118.219 33.188 117.535 33.464 116.995 34.016C116.467 34.568 116.203 35.294 116.203 36.194C116.203 37.094 116.467 37.82 116.995 38.372C117.535 38.924 118.219 39.2 119.047 39.2ZM133.366 35.996C134.554 36.356 135.148 37.124 135.148 38.3C135.148 39.164 134.824 39.83 134.176 40.298C133.528 40.766 132.568 41 131.296 41H126.4V31.388H131.098C132.274 31.388 133.192 31.604 133.852 32.036C134.512 32.468 134.842 33.08 134.842 33.872C134.842 34.364 134.71 34.79 134.446 35.15C134.194 35.51 133.834 35.792 133.366 35.996ZM128.542 35.402H130.9C132.064 35.402 132.646 35 132.646 34.196C132.646 33.416 132.064 33.026 130.9 33.026H128.542V35.402ZM131.116 39.362C132.352 39.362 132.97 38.96 132.97 38.156C132.97 37.736 132.826 37.424 132.538 37.22C132.25 37.004 131.8 36.896 131.188 36.896H128.542V39.362H131.116ZM141.126 31.28C142.542 31.28 143.622 31.622 144.366 32.306C145.122 32.978 145.5 33.998 145.5 35.366V41H143.376V39.83C143.1 40.25 142.704 40.574 142.188 40.802C141.684 41.018 141.072 41.126 140.352 41.126C139.632 41.126 139.002 41.006 138.462 40.766C137.922 40.514 137.502 40.172 137.202 39.74C136.914 39.296 136.77 38.798 136.77 38.246C136.77 37.382 137.088 36.692 137.724 36.176C138.372 35.648 139.386 35.384 140.766 35.384H143.25V35.24C143.25 34.568 143.046 34.052 142.638 33.692C142.242 33.332 141.648 33.152 140.856 33.152C140.316 33.152 139.782 33.236 139.254 33.404C138.738 33.572 138.3 33.806 137.94 34.106L137.058 32.468C137.562 32.084 138.168 31.79 138.876 31.586C139.584 31.382 140.334 31.28 141.126 31.28ZM140.82 39.488C141.384 39.488 141.882 39.362 142.314 39.11C142.758 38.846 143.07 38.474 143.25 37.994V36.878H140.928C139.632 36.878 138.984 37.304 138.984 38.156C138.984 38.564 139.146 38.888 139.47 39.128C139.794 39.368 140.244 39.488 140.82 39.488ZM155.898 33.296H152.532V41H150.282V33.296H146.898V31.388H155.898V33.296ZM166.109 36.248C166.109 36.404 166.097 36.626 166.073 36.914H158.531C158.663 37.622 159.005 38.186 159.557 38.606C160.121 39.014 160.817 39.218 161.645 39.218C162.701 39.218 163.571 38.87 164.255 38.174L165.461 39.56C165.029 40.076 164.483 40.466 163.823 40.73C163.163 40.994 162.419 41.126 161.591 41.126C160.535 41.126 159.605 40.916 158.801 40.496C157.997 40.076 157.373 39.494 156.929 38.75C156.497 37.994 156.281 37.142 156.281 36.194C156.281 35.258 156.491 34.418 156.911 33.674C157.343 32.918 157.937 32.33 158.693 31.91C159.449 31.49 160.301 31.28 161.249 31.28C162.185 31.28 163.019 31.49 163.751 31.91C164.495 32.318 165.071 32.9 165.479 33.656C165.899 34.4 166.109 35.264 166.109 36.248ZM161.249 33.08C160.529 33.08 159.917 33.296 159.413 33.728C158.921 34.148 158.621 34.712 158.513 35.42H163.967C163.871 34.724 163.577 34.16 163.085 33.728C162.593 33.296 161.981 33.08 161.249 33.08ZM177.159 31.388V41H174.909V33.296H171.309L171.219 35.204C171.159 36.476 171.039 37.544 170.859 38.408C170.691 39.26 170.397 39.938 169.977 40.442C169.569 40.934 169.005 41.18 168.285 41.18C167.949 41.18 167.535 41.114 167.043 40.982L167.151 39.092C167.319 39.128 167.463 39.146 167.583 39.146C168.039 39.146 168.381 38.966 168.609 38.606C168.837 38.234 168.981 37.796 169.041 37.292C169.113 36.776 169.173 36.044 169.221 35.096L169.383 31.388H177.159ZM185.013 34.556C186.237 34.556 187.173 34.832 187.821 35.384C188.481 35.936 188.811 36.716 188.811 37.724C188.811 38.78 188.451 39.596 187.731 40.172C187.011 40.748 185.997 41.03 184.689 41.018L180.189 41V31.388H182.439V34.538L185.013 34.556ZM184.491 39.362C185.151 39.374 185.655 39.236 186.003 38.948C186.351 38.66 186.525 38.24 186.525 37.688C186.525 37.148 186.357 36.752 186.021 36.5C185.685 36.248 185.175 36.116 184.491 36.104L182.439 36.086V39.344L184.491 39.362ZM190.788 31.388H193.038V35.294H197.88V31.388H200.13V41H197.88V37.202H193.038V41H190.788V31.388ZM207.43 41.126C206.458 41.126 205.582 40.916 204.802 40.496C204.022 40.076 203.41 39.494 202.966 38.75C202.534 37.994 202.318 37.142 202.318 36.194C202.318 35.246 202.534 34.4 202.966 33.656C203.41 32.912 204.022 32.33 204.802 31.91C205.582 31.49 206.458 31.28 207.43 31.28C208.414 31.28 209.296 31.49 210.076 31.91C210.856 32.33 211.462 32.912 211.894 33.656C212.338 34.4 212.56 35.246 212.56 36.194C212.56 37.142 212.338 37.994 211.894 38.75C211.462 39.494 210.856 40.076 210.076 40.496C209.296 40.916 208.414 41.126 207.43 41.126ZM207.43 39.2C208.258 39.2 208.942 38.924 209.482 38.372C210.022 37.82 210.292 37.094 210.292 36.194C210.292 35.294 210.022 34.568 209.482 34.016C208.942 33.464 208.258 33.188 207.43 33.188C206.602 33.188 205.918 33.464 205.378 34.016C204.85 34.568 204.586 35.294 204.586 36.194C204.586 37.094 204.85 37.82 205.378 38.372C205.918 38.924 206.602 39.2 207.43 39.2ZM219.157 41.126C218.161 41.126 217.267 40.916 216.475 40.496C215.683 40.076 215.065 39.494 214.621 38.75C214.177 37.994 213.955 37.142 213.955 36.194C213.955 35.246 214.177 34.4 214.621 33.656C215.065 32.912 215.677 32.33 216.457 31.91C217.249 31.49 218.149 31.28 219.157 31.28C220.105 31.28 220.933 31.472 221.641 31.856C222.361 32.24 222.901 32.792 223.261 33.512L221.533 34.52C221.257 34.076 220.909 33.746 220.489 33.53C220.081 33.302 219.631 33.188 219.139 33.188C218.299 33.188 217.603 33.464 217.051 34.016C216.499 34.556 216.223 35.282 216.223 36.194C216.223 37.106 216.493 37.838 217.033 38.39C217.585 38.93 218.287 39.2 219.139 39.2C219.631 39.2 220.081 39.092 220.489 38.876C220.909 38.648 221.257 38.312 221.533 37.868L223.261 38.876C222.889 39.596 222.343 40.154 221.623 40.55C220.915 40.934 220.093 41.126 219.157 41.126ZM232.768 33.296H229.402V41H227.152V33.296H223.768V31.388H232.768V33.296ZM239.224 34.556C240.448 34.556 241.384 34.832 242.032 35.384C242.692 35.936 243.022 36.716 243.022 37.724C243.022 38.78 242.662 39.596 241.942 40.172C241.222 40.748 240.208 41.03 238.9 41.018L234.4 41V31.388H236.65V34.538L239.224 34.556ZM238.702 39.362C239.362 39.374 239.866 39.236 240.214 38.948C240.562 38.66 240.736 38.24 240.736 37.688C240.736 37.148 240.568 36.752 240.232 36.5C239.896 36.248 239.386 36.116 238.702 36.104L236.65 36.086V39.344L238.702 39.362ZM264.626 34.682C264.626 36.338 264.05 37.646 262.898 38.606C261.746 39.566 260.108 40.088 257.984 40.172V41.504H255.824V40.172C253.7 40.064 252.056 39.536 250.892 38.588C249.74 37.64 249.164 36.338 249.164 34.682C249.164 33.026 249.74 31.724 250.892 30.776C252.056 29.816 253.7 29.282 255.824 29.174V27.896H257.984V29.174C260.108 29.282 261.746 29.816 262.898 30.776C264.05 31.724 264.626 33.026 264.626 34.682ZM257.984 38.336C259.424 38.228 260.516 37.868 261.26 37.256C262.004 36.632 262.376 35.768 262.376 34.664C262.376 33.56 261.998 32.702 261.242 32.09C260.498 31.478 259.412 31.124 257.984 31.028V38.336ZM251.45 34.682C251.45 35.774 251.822 36.626 252.566 37.238C253.322 37.85 254.408 38.216 255.824 38.336V31.028C252.908 31.244 251.45 32.462 251.45 34.682ZM266.831 31.388H269.081V37.724L274.391 31.388H276.443V41H274.193V34.664L268.901 41H266.831V31.388ZM284.672 31.856C285.584 31.856 286.388 32.054 287.084 32.45C287.78 32.834 288.32 33.374 288.704 34.07C289.1 34.766 289.298 35.564 289.298 36.464C289.298 37.388 289.082 38.21 288.65 38.93C288.218 39.638 287.612 40.19 286.832 40.586C286.052 40.982 285.164 41.18 284.168 41.18C282.5 41.18 281.21 40.628 280.298 39.524C279.386 38.42 278.93 36.83 278.93 34.754C278.93 32.822 279.344 31.292 280.172 30.164C281 29.036 282.266 28.292 283.97 27.932L288.434 26.978L288.758 28.994L284.708 29.822C283.544 30.062 282.674 30.47 282.098 31.046C281.522 31.622 281.186 32.432 281.09 33.476C281.522 32.96 282.044 32.564 282.656 32.288C283.268 32 283.94 31.856 284.672 31.856ZM284.222 39.362C285.05 39.362 285.716 39.098 286.22 38.57C286.736 38.03 286.994 37.346 286.994 36.518C286.994 35.69 286.736 35.024 286.22 34.52C285.716 34.016 285.05 33.764 284.222 33.764C283.382 33.764 282.704 34.016 282.188 34.52C281.672 35.024 281.414 35.69 281.414 36.518C281.414 37.358 281.672 38.042 282.188 38.57C282.716 39.098 283.394 39.362 284.222 39.362ZM295.76 41.126C294.788 41.126 293.912 40.916 293.132 40.496C292.352 40.076 291.74 39.494 291.296 38.75C290.864 37.994 290.648 37.142 290.648 36.194C290.648 35.246 290.864 34.4 291.296 33.656C291.74 32.912 292.352 32.33 293.132 31.91C293.912 31.49 294.788 31.28 295.76 31.28C296.744 31.28 297.626 31.49 298.406 31.91C299.186 32.33 299.792 32.912 300.224 33.656C300.668 34.4 300.89 35.246 300.89 36.194C300.89 37.142 300.668 37.994 300.224 38.75C299.792 39.494 299.186 40.076 298.406 40.496C297.626 40.916 296.744 41.126 295.76 41.126ZM295.76 39.2C296.588 39.2 297.272 38.924 297.812 38.372C298.352 37.82 298.622 37.094 298.622 36.194C298.622 35.294 298.352 34.568 297.812 34.016C297.272 33.464 296.588 33.188 295.76 33.188C294.932 33.188 294.248 33.464 293.708 34.016C293.18 34.568 292.916 35.294 292.916 36.194C292.916 37.094 293.18 37.82 293.708 38.372C294.248 38.924 294.932 39.2 295.76 39.2ZM303.113 31.388H305.363V35.294H310.205V31.388H312.455V41H310.205V37.202H305.363V41H303.113V31.388ZM319.052 31.28C320.468 31.28 321.548 31.622 322.292 32.306C323.048 32.978 323.426 33.998 323.426 35.366V41H321.302V39.83C321.026 40.25 320.63 40.574 320.114 40.802C319.61 41.018 318.998 41.126 318.278 41.126C317.558 41.126 316.928 41.006 316.388 40.766C315.848 40.514 315.428 40.172 315.128 39.74C314.84 39.296 314.696 38.798 314.696 38.246C314.696 37.382 315.014 36.692 315.65 36.176C316.298 35.648 317.312 35.384 318.692 35.384H321.176V35.24C321.176 34.568 320.972 34.052 320.564 33.692C320.168 33.332 319.574 33.152 318.782 33.152C318.242 33.152 317.708 33.236 317.18 33.404C316.664 33.572 316.226 33.806 315.866 34.106L314.984 32.468C315.488 32.084 316.094 31.79 316.802 31.586C317.51 31.382 318.26 31.28 319.052 31.28ZM318.746 39.488C319.31 39.488 319.808 39.362 320.24 39.11C320.684 38.846 320.996 38.474 321.176 37.994V36.878H318.854C317.558 36.878 316.91 37.304 316.91 38.156C316.91 38.564 317.072 38.888 317.396 39.128C317.72 39.368 318.17 39.488 318.746 39.488ZM334.364 31.388V41H332.114V37.274C331.19 37.718 330.224 37.94 329.216 37.94C327.98 37.94 327.032 37.658 326.372 37.094C325.712 36.518 325.382 35.642 325.382 34.466V31.388H327.632V34.322C327.632 34.934 327.812 35.39 328.172 35.69C328.532 35.99 329.042 36.14 329.702 36.14C330.542 36.14 331.346 35.96 332.114 35.6V31.388H334.364ZM345.544 31.388V41H343.294V37.274C342.37 37.718 341.404 37.94 340.396 37.94C339.16 37.94 338.212 37.658 337.552 37.094C336.892 36.518 336.562 35.642 336.562 34.466V31.388H338.812V34.322C338.812 34.934 338.992 35.39 339.352 35.69C339.712 35.99 340.222 36.14 340.882 36.14C341.722 36.14 342.526 35.96 343.294 35.6V31.388H345.544ZM348.57 31.388H350.82V37.724L356.13 31.388H358.182V41H355.932V34.664L350.64 41H348.57V31.388Z" fill="#141414"/>
<path d="M20 1H380V-1H20V1ZM399 20V200H401V20H399ZM380 219H20V221H380V219ZM1 200V20H-1V200H1ZM20 219C9.50659 219 1 210.493 1 200H-1C-1 211.598 8.40203 221 20 221V219ZM399 200C399 210.493 390.493 219 380 219V221C391.598 221 401 211.598 401 200H399ZM380 1C390.493 1 399 9.50659 399 20H401C401 8.40202 391.598 -1 380 -1V1ZM20 -1C8.40202 -1 -1 8.40201 -1 20H1C1 9.50658 9.50659 1 20 1V-1Z" fill="#141414"/>
<defs>
<linearGradient id="paint0_linear_107_207321" x1="479" y1="-48" x2="-80.5" y2="263.5" gradientUnits="userSpaceOnUse">
<stop stop-color="#82CEFF"/>
<stop offset="1" stop-color="#FF6B9B"/>
</linearGradient>
</defs>
</svg>
