<svg width="400" height="220" viewBox="0 0 400 220" fill="none" xmlns="http://www.w3.org/2000/svg">
<path d="M0 20C0 8.9543 8.95431 0 20 0H380C391.046 0 400 8.95431 400 20V200C400 211.046 391.046 220 380 220H20C8.95431 220 0 211.046 0 200V20Z" fill="url(#paint0_linear_527_6858)"/>
<path d="M128.818 41.18C127.546 41.18 126.394 40.904 125.362 40.352C124.342 39.788 123.538 39.014 122.95 38.03C122.374 37.046 122.086 35.936 122.086 34.7C122.086 33.464 122.38 32.354 122.968 31.37C123.556 30.386 124.36 29.618 125.38 29.066C126.412 28.502 127.564 28.22 128.836 28.22C129.868 28.22 130.81 28.4 131.662 28.76C132.514 29.12 133.234 29.642 133.822 30.326L132.31 31.748C131.398 30.764 130.276 30.272 128.944 30.272C128.08 30.272 127.306 30.464 126.622 30.848C125.938 31.22 125.404 31.742 125.02 32.414C124.636 33.086 124.444 33.848 124.444 34.7C124.444 35.552 124.636 36.314 125.02 36.986C125.404 37.658 125.938 38.186 126.622 38.57C127.306 38.942 128.08 39.128 128.944 39.128C130.276 39.128 131.398 38.63 132.31 37.634L133.822 39.074C133.234 39.758 132.508 40.28 131.644 40.64C130.792 41 129.85 41.18 128.818 41.18ZM142.708 35.996C143.896 36.356 144.49 37.124 144.49 38.3C144.49 39.164 144.166 39.83 143.518 40.298C142.87 40.766 141.91 41 140.638 41H135.742V31.388H140.44C141.616 31.388 142.534 31.604 143.194 32.036C143.854 32.468 144.184 33.08 144.184 33.872C144.184 34.364 144.052 34.79 143.788 35.15C143.536 35.51 143.176 35.792 142.708 35.996ZM137.884 35.402H140.242C141.406 35.402 141.988 35 141.988 34.196C141.988 33.416 141.406 33.026 140.242 33.026H137.884V35.402ZM140.458 39.362C141.694 39.362 142.312 38.96 142.312 38.156C142.312 37.736 142.168 37.424 141.88 37.22C141.592 37.004 141.142 36.896 140.53 36.896H137.884V39.362H140.458ZM155.005 31.388V41H152.989V38.102H150.451L148.489 41H146.077L148.345 37.796C147.649 37.556 147.115 37.19 146.743 36.698C146.383 36.194 146.203 35.576 146.203 34.844C146.203 33.74 146.593 32.888 147.373 32.288C148.153 31.688 149.227 31.388 150.595 31.388H155.005ZM150.667 33.278C149.215 33.278 148.489 33.824 148.489 34.916C148.489 35.996 149.191 36.536 150.595 36.536H152.989V33.278H150.667ZM163.65 35.996C164.25 36.164 164.712 36.44 165.036 36.824C165.372 37.196 165.54 37.646 165.54 38.174C165.54 38.762 165.342 39.284 164.946 39.74C164.55 40.184 164.004 40.532 163.308 40.784C162.612 41.036 161.82 41.162 160.932 41.162C160.188 41.162 159.462 41.078 158.754 40.91C158.046 40.73 157.404 40.478 156.828 40.154L157.476 38.48C157.944 38.744 158.472 38.948 159.06 39.092C159.648 39.236 160.236 39.308 160.824 39.308C161.58 39.308 162.168 39.194 162.588 38.966C163.02 38.726 163.236 38.402 163.236 37.994C163.236 37.622 163.068 37.334 162.732 37.13C162.408 36.926 161.946 36.824 161.346 36.824H159.474V35.312H161.166C161.73 35.312 162.168 35.216 162.48 35.024C162.804 34.832 162.966 34.562 162.966 34.214C162.966 33.866 162.774 33.59 162.39 33.386C162.006 33.182 161.478 33.08 160.806 33.08C159.846 33.08 158.832 33.314 157.764 33.782L157.188 32.126C158.448 31.538 159.72 31.244 161.004 31.244C161.82 31.244 162.552 31.358 163.2 31.586C163.848 31.802 164.352 32.114 164.712 32.522C165.084 32.918 165.27 33.374 165.27 33.89C165.27 34.358 165.126 34.778 164.838 35.15C164.55 35.51 164.154 35.792 163.65 35.996ZM167.875 31.388H170.125V35.294H174.967V31.388H177.217V41H174.967V37.202H170.125V41H167.875V31.388ZM184.913 34.556C186.137 34.556 187.073 34.832 187.721 35.384C188.369 35.936 188.693 36.716 188.693 37.724C188.693 38.78 188.333 39.596 187.613 40.172C186.905 40.748 185.897 41.03 184.589 41.018L180.233 41V31.388H182.483V34.538L184.913 34.556ZM189.935 31.388H192.185V41H189.935V31.388ZM184.391 39.362C185.051 39.374 185.555 39.236 185.903 38.948C186.251 38.66 186.425 38.24 186.425 37.688C186.425 37.148 186.257 36.752 185.921 36.5C185.585 36.248 185.075 36.116 184.391 36.104L182.483 36.086V39.344L184.391 39.362ZM195.209 31.388H197.459V37.724L202.769 31.388H204.821V41H202.571V34.664L197.279 41H195.209V31.388ZM199.871 30.254C198.899 30.254 198.155 30.032 197.639 29.588C197.135 29.132 196.877 28.472 196.865 27.608H198.359C198.371 28.04 198.503 28.382 198.755 28.634C199.019 28.886 199.385 29.012 199.853 29.012C200.309 29.012 200.669 28.886 200.933 28.634C201.209 28.382 201.353 28.04 201.365 27.608H202.895C202.883 28.472 202.619 29.132 202.103 29.588C201.587 30.032 200.843 30.254 199.871 30.254ZM217.197 41.126C216.201 41.126 215.307 40.916 214.515 40.496C213.723 40.076 213.105 39.494 212.661 38.75C212.217 37.994 211.995 37.142 211.995 36.194C211.995 35.246 212.217 34.4 212.661 33.656C213.105 32.912 213.717 32.33 214.497 31.91C215.289 31.49 216.189 31.28 217.197 31.28C218.145 31.28 218.973 31.472 219.681 31.856C220.401 32.24 220.941 32.792 221.301 33.512L219.573 34.52C219.297 34.076 218.949 33.746 218.529 33.53C218.121 33.302 217.671 33.188 217.179 33.188C216.339 33.188 215.643 33.464 215.091 34.016C214.539 34.556 214.263 35.282 214.263 36.194C214.263 37.106 214.533 37.838 215.073 38.39C215.625 38.93 216.327 39.2 217.179 39.2C217.671 39.2 218.121 39.092 218.529 38.876C218.949 38.648 219.297 38.312 219.573 37.868L221.301 38.876C220.929 39.596 220.383 40.154 219.663 40.55C218.955 40.934 218.133 41.126 217.197 41.126ZM232.498 31.388V41H230.266V33.296H225.532V41H223.282V31.388H232.498ZM235.533 31.388H237.783V37.724L243.093 31.388H245.145V41H242.895V34.664L237.603 41H235.533V31.388ZM252.546 41.126C251.55 41.126 250.656 40.916 249.864 40.496C249.072 40.076 248.454 39.494 248.01 38.75C247.566 37.994 247.344 37.142 247.344 36.194C247.344 35.246 247.566 34.4 248.01 33.656C248.454 32.912 249.066 32.33 249.846 31.91C250.638 31.49 251.538 31.28 252.546 31.28C253.494 31.28 254.322 31.472 255.03 31.856C255.75 32.24 256.29 32.792 256.65 33.512L254.922 34.52C254.646 34.076 254.298 33.746 253.878 33.53C253.47 33.302 253.02 33.188 252.528 33.188C251.688 33.188 250.992 33.464 250.44 34.016C249.888 34.556 249.612 35.282 249.612 36.194C249.612 37.106 249.882 37.838 250.422 38.39C250.974 38.93 251.676 39.2 252.528 39.2C253.02 39.2 253.47 39.092 253.878 38.876C254.298 38.648 254.646 38.312 254.922 37.868L256.65 38.876C256.278 39.596 255.732 40.154 255.012 40.55C254.304 40.934 253.482 41.126 252.546 41.126ZM262.775 41.126C261.803 41.126 260.927 40.916 260.147 40.496C259.367 40.076 258.755 39.494 258.311 38.75C257.879 37.994 257.663 37.142 257.663 36.194C257.663 35.246 257.879 34.4 258.311 33.656C258.755 32.912 259.367 32.33 260.147 31.91C260.927 31.49 261.803 31.28 262.775 31.28C263.759 31.28 264.641 31.49 265.421 31.91C266.201 32.33 266.807 32.912 267.239 33.656C267.683 34.4 267.905 35.246 267.905 36.194C267.905 37.142 267.683 37.994 267.239 38.75C266.807 39.494 266.201 40.076 265.421 40.496C264.641 40.916 263.759 41.126 262.775 41.126ZM262.775 39.2C263.603 39.2 264.287 38.924 264.827 38.372C265.367 37.82 265.637 37.094 265.637 36.194C265.637 35.294 265.367 34.568 264.827 34.016C264.287 33.464 263.603 33.188 262.775 33.188C261.947 33.188 261.263 33.464 260.723 34.016C260.195 34.568 259.931 35.294 259.931 36.194C259.931 37.094 260.195 37.82 260.723 38.372C261.263 38.924 261.947 39.2 262.775 39.2ZM274.123 37.148H272.377V41H270.127V31.388H272.377V35.276H274.177L277.021 31.388H279.433L275.941 36.014L279.667 41H277.021L274.123 37.148Z" fill="#141414"/>
<rect x="73" y="117" width="38" height="38" rx="19" fill="white"/>
<path d="M90.0774 136.112C90.664 136.379 91.112 136.741 91.4214 137.2C91.7414 137.648 91.9014 138.176 91.9014 138.784C91.9014 139.467 91.7094 140.064 91.3254 140.576C90.952 141.088 90.4187 141.483 89.7254 141.76C89.032 142.027 88.2267 142.16 87.3094 142.16C86.392 142.16 85.5867 142.027 84.8934 141.76C84.2107 141.483 83.6827 141.088 83.3094 140.576C82.936 140.064 82.7494 139.467 82.7494 138.784C82.7494 138.176 82.904 137.648 83.2134 137.2C83.5227 136.741 83.9654 136.379 84.5414 136.112C84.0934 135.867 83.7467 135.547 83.5014 135.152C83.2667 134.747 83.1494 134.283 83.1494 133.76C83.1494 133.131 83.32 132.581 83.6614 132.112C84.0134 131.643 84.504 131.28 85.1334 131.024C85.7627 130.768 86.488 130.64 87.3094 130.64C88.1414 130.64 88.872 130.768 89.5014 131.024C90.1307 131.28 90.6214 131.643 90.9734 132.112C91.3254 132.581 91.5014 133.131 91.5014 133.76C91.5014 134.283 91.3787 134.741 91.1334 135.136C90.888 135.531 90.536 135.856 90.0774 136.112ZM87.3094 132.272C86.6587 132.272 86.1414 132.411 85.7574 132.688C85.384 132.965 85.1974 133.355 85.1974 133.856C85.1974 134.336 85.384 134.72 85.7574 135.008C86.1414 135.285 86.6587 135.424 87.3094 135.424C87.9707 135.424 88.4934 135.285 88.8774 135.008C89.2614 134.72 89.4534 134.336 89.4534 133.856C89.4534 133.355 89.256 132.965 88.8614 132.688C88.4774 132.411 87.96 132.272 87.3094 132.272ZM87.3094 140.528C88.0774 140.528 88.6854 140.368 89.1334 140.048C89.5814 139.728 89.8054 139.285 89.8054 138.72C89.8054 138.165 89.5814 137.728 89.1334 137.408C88.6854 137.088 88.0774 136.928 87.3094 136.928C86.5414 136.928 85.9387 137.088 85.5014 137.408C85.064 137.728 84.8454 138.165 84.8454 138.72C84.8454 139.285 85.064 139.728 85.5014 140.048C85.9387 140.368 86.5414 140.528 87.3094 140.528ZM96.7549 135.136C98.3335 135.136 99.5015 135.445 100.259 136.064C101.016 136.672 101.395 137.504 101.395 138.56C101.395 139.232 101.23 139.84 100.899 140.384C100.568 140.928 100.072 141.36 99.4109 141.68C98.7495 142 97.9335 142.16 96.9629 142.16C96.1629 142.16 95.3895 142.048 94.6429 141.824C93.8962 141.589 93.2669 141.269 92.7549 140.864L93.6349 139.248C94.0509 139.589 94.5469 139.861 95.1229 140.064C95.7095 140.256 96.3122 140.352 96.9309 140.352C97.6669 140.352 98.2429 140.203 98.6589 139.904C99.0855 139.595 99.2989 139.173 99.2989 138.64C99.2989 138.064 99.0695 137.632 98.6109 137.344C98.1629 137.045 97.3895 136.896 96.2909 136.896H93.5869L94.1629 130.8H100.739V132.544H95.9229L95.6829 135.136H96.7549Z" fill="#3D3D3D"/>
<rect x="73" y="117" width="38" height="38" rx="19" stroke="#0032FF" stroke-width="2"/>
<path d="M91.9991 178.096C91.1351 178.096 90.3618 177.867 89.6791 177.408C89.0071 176.949 88.4791 176.293 88.0951 175.44C87.7218 174.576 87.5351 173.563 87.5351 172.4C87.5351 171.237 87.7218 170.229 88.0951 169.376C88.4791 168.512 89.0071 167.851 89.6791 167.392C90.3618 166.933 91.1351 166.704 91.9991 166.704C92.8631 166.704 93.6311 166.933 94.3031 167.392C94.9858 167.851 95.5191 168.512 95.9031 169.376C96.2871 170.229 96.4791 171.237 96.4791 172.4C96.4791 173.563 96.2871 174.576 95.9031 175.44C95.5191 176.293 94.9858 176.949 94.3031 177.408C93.6311 177.867 92.8631 178.096 91.9991 178.096ZM91.9991 177.04C92.6498 177.04 93.2205 176.859 93.7111 176.496C94.2125 176.133 94.6018 175.605 94.8791 174.912C95.1565 174.219 95.2951 173.381 95.2951 172.4C95.2951 171.419 95.1565 170.581 94.8791 169.888C94.6018 169.195 94.2125 168.667 93.7111 168.304C93.2205 167.941 92.6498 167.76 91.9991 167.76C91.3485 167.76 90.7725 167.941 90.2711 168.304C89.7805 168.667 89.3965 169.195 89.1191 169.888C88.8418 170.581 88.7031 171.419 88.7031 172.4C88.7031 173.381 88.8418 174.219 89.1191 174.912C89.3965 175.605 89.7805 176.133 90.2711 176.496C90.7725 176.859 91.3485 177.04 91.9991 177.04Z" fill="#3D3D3D"/>
<path fill-rule="evenodd" clip-rule="evenodd" d="M125.293 128.293C125.683 127.902 126.317 127.902 126.707 128.293L134.414 136L126.707 143.707C126.317 144.098 125.683 144.098 125.293 143.707C124.902 143.317 124.902 142.683 125.293 142.293L131.586 136L125.293 129.707C124.902 129.317 124.902 128.683 125.293 128.293Z" fill="#0032FF"/>
<rect x="145" y="117" width="38" height="38" rx="19" fill="white"/>
<path d="M160.873 130.8V142H158.793V132.544H156.425V130.8H160.873ZM167.863 135.424C168.897 135.552 169.687 135.904 170.231 136.48C170.775 137.056 171.047 137.776 171.047 138.64C171.047 139.291 170.881 139.883 170.551 140.416C170.22 140.949 169.719 141.376 169.047 141.696C168.385 142.005 167.575 142.16 166.615 142.16C165.815 142.16 165.041 142.048 164.295 141.824C163.559 141.589 162.929 141.269 162.407 140.864L163.303 139.248C163.708 139.589 164.199 139.861 164.775 140.064C165.361 140.256 165.964 140.352 166.583 140.352C167.319 140.352 167.895 140.203 168.311 139.904C168.737 139.595 168.951 139.179 168.951 138.656C168.951 138.133 168.748 137.728 168.343 137.44C167.948 137.141 167.34 136.992 166.519 136.992H165.495V135.568L168.039 132.544H162.951V130.8H170.583V132.192L167.863 135.424Z" fill="#3D3D3D"/>
<rect x="145" y="117" width="38" height="38" rx="19" stroke="#0032FF" stroke-width="2"/>
<path d="M165.045 166.8V178H163.893V167.824H161.253V166.8H165.045Z" fill="#3D3D3D"/>
<path fill-rule="evenodd" clip-rule="evenodd" d="M197.293 128.293C197.683 127.902 198.317 127.902 198.707 128.293L206.414 136L198.707 143.707C198.317 144.098 197.683 144.098 197.293 143.707C196.902 143.317 196.902 142.683 197.293 142.293L203.586 136L197.293 129.707C196.902 129.317 196.902 128.683 197.293 128.293Z" fill="#0032FF"/>
<rect x="217" y="117" width="38" height="38" rx="19" fill="white"/>
<path d="M231.386 135.424C232.421 135.552 233.21 135.904 233.754 136.48C234.298 137.056 234.57 137.776 234.57 138.64C234.57 139.291 234.405 139.883 234.074 140.416C233.743 140.949 233.242 141.376 232.57 141.696C231.909 142.005 231.098 142.16 230.138 142.16C229.338 142.16 228.565 142.048 227.818 141.824C227.082 141.589 226.453 141.269 225.93 140.864L226.826 139.248C227.231 139.589 227.722 139.861 228.298 140.064C228.885 140.256 229.487 140.352 230.106 140.352C230.842 140.352 231.418 140.203 231.834 139.904C232.261 139.595 232.474 139.179 232.474 138.656C232.474 138.133 232.271 137.728 231.866 137.44C231.471 137.141 230.863 136.992 230.042 136.992H229.018V135.568L231.562 132.544H226.474V130.8H234.106V132.192L231.386 135.424ZM245.915 139.456H243.931V142H241.915V139.456H235.771V138.016L241.291 130.8H243.515L238.315 137.696H241.979V135.44H243.931V137.696H245.915V139.456Z" fill="#3D3D3D"/>
<rect x="217" y="117" width="38" height="38" rx="19" stroke="#0032FF" stroke-width="2"/>
<path d="M239.933 176.976V178H232.077V177.184L236.733 172.624C237.32 172.048 237.714 171.552 237.917 171.136C238.13 170.709 238.237 170.283 238.237 169.856C238.237 169.195 238.008 168.683 237.549 168.32C237.101 167.947 236.456 167.76 235.613 167.76C234.301 167.76 233.282 168.176 232.557 169.008L231.741 168.304C232.178 167.792 232.733 167.397 233.405 167.12C234.088 166.843 234.856 166.704 235.709 166.704C236.85 166.704 237.752 166.976 238.413 167.52C239.085 168.053 239.421 168.789 239.421 169.728C239.421 170.304 239.293 170.859 239.037 171.392C238.781 171.925 238.296 172.539 237.581 173.232L233.773 176.976H239.933Z" fill="#3D3D3D"/>
<path fill-rule="evenodd" clip-rule="evenodd" d="M269.293 128.293C269.683 127.902 270.317 127.902 270.707 128.293L278.414 136L270.707 143.707C270.317 144.098 269.683 144.098 269.293 143.707C268.902 143.317 268.902 142.683 269.293 142.293L275.586 136L269.293 129.707C268.902 129.317 268.902 128.683 269.293 128.293Z" fill="#0032FF"/>
<rect x="289" y="117" width="38" height="38" rx="19" fill="white"/>
<path d="M309.529 130.8V142H307.449V132.544H305.081V130.8H309.529Z" fill="#3D3D3D"/>
<rect x="289" y="117" width="38" height="38" rx="19" stroke="#0032FF" stroke-width="2"/>
<path d="M308.124 171.6C309.298 171.664 310.188 171.984 310.796 172.56C311.415 173.125 311.724 173.867 311.724 174.784C311.724 175.424 311.57 175.995 311.26 176.496C310.951 176.987 310.492 177.376 309.884 177.664C309.276 177.952 308.535 178.096 307.66 178.096C306.85 178.096 306.082 177.968 305.356 177.712C304.642 177.445 304.066 177.093 303.628 176.656L304.188 175.744C304.562 176.128 305.058 176.443 305.676 176.688C306.295 176.923 306.956 177.04 307.66 177.04C308.578 177.04 309.287 176.843 309.788 176.448C310.29 176.043 310.54 175.488 310.54 174.784C310.54 174.091 310.29 173.547 309.788 173.152C309.287 172.757 308.53 172.56 307.516 172.56H306.716V171.712L309.82 167.824H304.092V166.8H311.292V167.616L308.124 171.6Z" fill="#3D3D3D"/>
<rect x="224" y="80" width="24" height="24" rx="12" fill="white"/>
<path d="M238.749 92.112C239.336 92.3787 239.784 92.7413 240.093 93.2C240.413 93.648 240.573 94.176 240.573 94.784C240.573 95.4667 240.381 96.064 239.997 96.576C239.624 97.088 239.091 97.4827 238.397 97.76C237.704 98.0267 236.899 98.16 235.981 98.16C235.064 98.16 234.259 98.0267 233.565 97.76C232.883 97.4827 232.355 97.088 231.981 96.576C231.608 96.064 231.421 95.4667 231.421 94.784C231.421 94.176 231.576 93.648 231.885 93.2C232.195 92.7413 232.637 92.3787 233.213 92.112C232.765 91.8667 232.419 91.5467 232.173 91.152C231.939 90.7467 231.821 90.2827 231.821 89.76C231.821 89.1307 231.992 88.5813 232.333 88.112C232.685 87.6427 233.176 87.28 233.805 87.024C234.435 86.768 235.16 86.64 235.981 86.64C236.813 86.64 237.544 86.768 238.173 87.024C238.803 87.28 239.293 87.6427 239.645 88.112C239.997 88.5813 240.173 89.1307 240.173 89.76C240.173 90.2827 240.051 90.7413 239.805 91.136C239.56 91.5307 239.208 91.856 238.749 92.112ZM235.981 88.272C235.331 88.272 234.813 88.4107 234.429 88.688C234.056 88.9653 233.869 89.3547 233.869 89.856C233.869 90.336 234.056 90.72 234.429 91.008C234.813 91.2853 235.331 91.424 235.981 91.424C236.643 91.424 237.165 91.2853 237.549 91.008C237.933 90.72 238.125 90.336 238.125 89.856C238.125 89.3547 237.928 88.9653 237.533 88.688C237.149 88.4107 236.632 88.272 235.981 88.272ZM235.981 96.528C236.749 96.528 237.357 96.368 237.805 96.048C238.253 95.728 238.477 95.2853 238.477 94.72C238.477 94.1653 238.253 93.728 237.805 93.408C237.357 93.088 236.749 92.928 235.981 92.928C235.213 92.928 234.611 93.088 234.173 93.408C233.736 93.728 233.517 94.1653 233.517 94.72C233.517 95.2853 233.736 95.728 234.173 96.048C234.611 96.368 235.213 96.528 235.981 96.528Z" fill="#0032FF"/>
<path d="M20 1H380V-1H20V1ZM399 20V200H401V20H399ZM380 219H20V221H380V219ZM1 200V20H-1V200H1ZM20 219C9.50659 219 1 210.493 1 200H-1C-1 211.598 8.40203 221 20 221V219ZM399 200C399 210.493 390.493 219 380 219V221C391.598 221 401 211.598 401 200H399ZM380 1C390.493 1 399 9.50659 399 20H401C401 8.40202 391.598 -1 380 -1V1ZM20 -1C8.40202 -1 -1 8.40201 -1 20H1C1 9.50658 9.50659 1 20 1V-1Z" fill="#141414"/>
<defs>
<linearGradient id="paint0_linear_527_6858" x1="479" y1="-48" x2="-80.5" y2="263.5" gradientUnits="userSpaceOnUse">
<stop stop-color="#82CEFF"/>
<stop offset="1" stop-color="#FF6B9B"/>
</linearGradient>
</defs>
</svg>
