<svg width="400" height="220" viewBox="0 0 400 220" fill="none" xmlns="http://www.w3.org/2000/svg">
<path d="M0 20C0 8.9543 8.95431 0 20 0H380C391.046 0 400 8.95431 400 20V200C400 211.046 391.046 220 380 220H20C8.95431 220 0 211.046 0 200V20Z" fill="url(#paint0_linear_527_6668)"/>
<path d="M165.847 41.18C164.563 41.18 163.405 40.904 162.373 40.352C161.341 39.788 160.531 39.014 159.943 38.03C159.355 37.034 159.061 35.924 159.061 34.7C159.061 33.476 159.355 32.372 159.943 31.388C160.531 30.392 161.341 29.618 162.373 29.066C163.405 28.502 164.563 28.22 165.847 28.22C167.131 28.22 168.289 28.502 169.321 29.066C170.353 29.618 171.163 30.386 171.751 31.37C172.339 32.354 172.633 33.464 172.633 34.7C172.633 35.936 172.339 37.046 171.751 38.03C171.163 39.014 170.353 39.788 169.321 40.352C168.289 40.904 167.131 41.18 165.847 41.18ZM165.847 39.128C166.687 39.128 167.443 38.942 168.115 38.57C168.787 38.186 169.315 37.658 169.699 36.986C170.083 36.302 170.275 35.54 170.275 34.7C170.275 33.86 170.083 33.104 169.699 32.432C169.315 31.748 168.787 31.22 168.115 30.848C167.443 30.464 166.687 30.272 165.847 30.272C165.007 30.272 164.251 30.464 163.579 30.848C162.907 31.22 162.379 31.748 161.995 32.432C161.611 33.104 161.419 33.86 161.419 34.7C161.419 35.54 161.611 36.302 161.995 36.986C162.379 37.658 162.907 38.186 163.579 38.57C164.251 38.942 165.007 39.128 165.847 39.128ZM183.122 31.388V41H180.872V37.274C179.948 37.718 178.982 37.94 177.974 37.94C176.738 37.94 175.79 37.658 175.13 37.094C174.47 36.518 174.14 35.642 174.14 34.466V31.388H176.39V34.322C176.39 34.934 176.57 35.39 176.93 35.69C177.29 35.99 177.8 36.14 178.46 36.14C179.3 36.14 180.104 35.96 180.872 35.6V31.388H183.122ZM195.148 36.248C195.148 36.404 195.136 36.626 195.112 36.914H187.57C187.702 37.622 188.044 38.186 188.596 38.606C189.16 39.014 189.856 39.218 190.684 39.218C191.74 39.218 192.61 38.87 193.294 38.174L194.5 39.56C194.068 40.076 193.522 40.466 192.862 40.73C192.202 40.994 191.458 41.126 190.63 41.126C189.574 41.126 188.644 40.916 187.84 40.496C187.036 40.076 186.412 39.494 185.968 38.75C185.536 37.994 185.32 37.142 185.32 36.194C185.32 35.258 185.53 34.418 185.95 33.674C186.382 32.918 186.976 32.33 187.732 31.91C188.488 31.49 189.34 31.28 190.288 31.28C191.224 31.28 192.058 31.49 192.79 31.91C193.534 32.318 194.11 32.9 194.518 33.656C194.938 34.4 195.148 35.264 195.148 36.248ZM190.288 33.08C189.568 33.08 188.956 33.296 188.452 33.728C187.96 34.148 187.66 34.712 187.552 35.42H193.006C192.91 34.724 192.616 34.16 192.124 33.728C191.632 33.296 191.02 33.08 190.288 33.08ZM202.937 31.28C203.873 31.28 204.707 31.484 205.439 31.892C206.183 32.3 206.765 32.876 207.185 33.62C207.605 34.364 207.815 35.222 207.815 36.194C207.815 37.166 207.605 38.03 207.185 38.786C206.765 39.53 206.183 40.106 205.439 40.514C204.707 40.922 203.873 41.126 202.937 41.126C201.641 41.126 200.615 40.694 199.859 39.83V44.492H197.609V31.388H199.751V32.648C200.123 32.192 200.579 31.85 201.119 31.622C201.671 31.394 202.277 31.28 202.937 31.28ZM202.685 39.2C203.513 39.2 204.191 38.924 204.719 38.372C205.259 37.82 205.529 37.094 205.529 36.194C205.529 35.294 205.259 34.568 204.719 34.016C204.191 33.464 203.513 33.188 202.685 33.188C202.145 33.188 201.659 33.314 201.227 33.566C200.795 33.806 200.453 34.154 200.201 34.61C199.949 35.066 199.823 35.594 199.823 36.194C199.823 36.794 199.949 37.322 200.201 37.778C200.453 38.234 200.795 38.588 201.227 38.84C201.659 39.08 202.145 39.2 202.685 39.2ZM219.054 36.248C219.054 36.404 219.042 36.626 219.018 36.914H211.476C211.608 37.622 211.95 38.186 212.502 38.606C213.066 39.014 213.762 39.218 214.59 39.218C215.646 39.218 216.516 38.87 217.2 38.174L218.406 39.56C217.974 40.076 217.428 40.466 216.768 40.73C216.108 40.994 215.364 41.126 214.536 41.126C213.48 41.126 212.55 40.916 211.746 40.496C210.942 40.076 210.318 39.494 209.874 38.75C209.442 37.994 209.226 37.142 209.226 36.194C209.226 35.258 209.436 34.418 209.856 33.674C210.288 32.918 210.882 32.33 211.638 31.91C212.394 31.49 213.246 31.28 214.194 31.28C215.13 31.28 215.964 31.49 216.696 31.91C217.44 32.318 218.016 32.9 218.424 33.656C218.844 34.4 219.054 35.264 219.054 36.248ZM214.194 33.08C213.474 33.08 212.862 33.296 212.358 33.728C211.866 34.148 211.566 34.712 211.458 35.42H216.912C216.816 34.724 216.522 34.16 216.03 33.728C215.538 33.296 214.926 33.08 214.194 33.08ZM231.652 39.092V43.142H229.546V41H222.13V43.142H220.042V39.092H220.492C221.104 39.068 221.518 38.678 221.734 37.922C221.962 37.154 222.112 36.074 222.184 34.682L222.31 31.388H230.23V39.092H231.652ZM224.236 34.844C224.188 35.948 224.098 36.848 223.966 37.544C223.834 38.24 223.594 38.756 223.246 39.092H227.98V33.296H224.29L224.236 34.844ZM238.485 34.556C239.709 34.556 240.645 34.832 241.293 35.384C241.953 35.936 242.283 36.716 242.283 37.724C242.283 38.78 241.923 39.596 241.203 40.172C240.483 40.748 239.469 41.03 238.161 41.018L233.661 41V31.388H235.911V34.538L238.485 34.556ZM237.963 39.362C238.623 39.374 239.127 39.236 239.475 38.948C239.823 38.66 239.997 38.24 239.997 37.688C239.997 37.148 239.829 36.752 239.493 36.5C239.157 36.248 238.647 36.116 237.963 36.104L235.911 36.086V39.344L237.963 39.362Z" fill="#141414"/>
<rect x="69" y="105" width="38" height="38" rx="19" fill="white"/>
<rect x="69" y="105" width="38" height="38" rx="19" stroke="#0032FF" stroke-width="2"/>
<path d="M88.5081 166.128C87.6227 166.128 86.8334 165.904 86.1401 165.456C85.4574 164.997 84.9187 164.336 84.5241 163.472C84.1294 162.608 83.9321 161.584 83.9321 160.4C83.9321 159.216 84.1294 158.192 84.5241 157.328C84.9187 156.464 85.4574 155.808 86.1401 155.36C86.8334 154.901 87.6227 154.672 88.5081 154.672C89.3827 154.672 90.1614 154.901 90.8441 155.36C91.5374 155.808 92.0814 156.464 92.4761 157.328C92.8707 158.192 93.0681 159.216 93.0681 160.4C93.0681 161.584 92.8707 162.608 92.4761 163.472C92.0814 164.336 91.5374 164.997 90.8441 165.456C90.1614 165.904 89.3827 166.128 88.5081 166.128ZM88.5081 164.704C89.4041 164.704 90.1187 164.336 90.6521 163.6C91.1961 162.864 91.4681 161.797 91.4681 160.4C91.4681 159.003 91.1961 157.936 90.6521 157.2C90.1187 156.464 89.4041 156.096 88.5081 156.096C87.6014 156.096 86.8761 156.464 86.3321 157.2C85.7987 157.936 85.5321 159.003 85.5321 160.4C85.5321 161.797 85.7987 162.864 86.3321 163.6C86.8761 164.336 87.6014 164.704 88.5081 164.704Z" fill="black"/>
<path d="M129.476 85.44C130.554 85.44 131.407 85.7547 132.036 86.384C132.676 87.0027 132.996 87.9147 132.996 89.12V94H131.46V89.296C131.46 88.4747 131.263 87.856 130.868 87.44C130.474 87.024 129.908 86.816 129.172 86.816C128.34 86.816 127.684 87.0613 127.204 87.552C126.724 88.032 126.484 88.7253 126.484 89.632V94H124.948V82.128H126.484V86.72C126.804 86.3147 127.22 86 127.732 85.776C128.255 85.552 128.836 85.44 129.476 85.44ZM143.55 89.808C143.55 89.9253 143.539 90.08 143.518 90.272H136.638C136.734 91.0187 137.059 91.6213 137.614 92.08C138.179 92.528 138.878 92.752 139.71 92.752C140.723 92.752 141.539 92.4107 142.158 91.728L143.006 92.72C142.622 93.168 142.142 93.5093 141.566 93.744C141 93.9787 140.366 94.096 139.662 94.096C138.766 94.096 137.971 93.9147 137.278 93.552C136.584 93.1787 136.046 92.6613 135.662 92C135.288 91.3387 135.102 90.592 135.102 89.76C135.102 88.9387 135.283 88.1973 135.646 87.536C136.019 86.8747 136.526 86.3627 137.166 86C137.816 85.6267 138.547 85.44 139.358 85.44C140.168 85.44 140.888 85.6267 141.518 86C142.158 86.3627 142.654 86.8747 143.006 87.536C143.368 88.1973 143.55 88.9547 143.55 89.808ZM139.358 86.736C138.622 86.736 138.003 86.96 137.502 87.408C137.011 87.856 136.723 88.4427 136.638 89.168H142.078C141.992 88.4533 141.699 87.872 141.198 87.424C140.707 86.9653 140.094 86.736 139.358 86.736ZM148.536 85.44C149.71 85.44 150.606 85.728 151.224 86.304C151.854 86.88 152.168 87.7387 152.168 88.88V94H150.712V92.88C150.456 93.2747 150.088 93.5787 149.608 93.792C149.139 93.9947 148.579 94.096 147.928 94.096C146.979 94.096 146.216 93.8667 145.64 93.408C145.075 92.9493 144.792 92.3467 144.792 91.6C144.792 90.8533 145.064 90.256 145.608 89.808C146.152 89.3493 147.016 89.12 148.2 89.12H150.632V88.816C150.632 88.1547 150.44 87.648 150.056 87.296C149.672 86.944 149.107 86.768 148.36 86.768C147.859 86.768 147.368 86.8533 146.888 87.024C146.408 87.184 146.003 87.4027 145.672 87.68L145.032 86.528C145.47 86.176 145.992 85.9093 146.6 85.728C147.208 85.536 147.854 85.44 148.536 85.44ZM148.184 92.912C148.771 92.912 149.278 92.784 149.704 92.528C150.131 92.2613 150.44 91.888 150.632 91.408V90.224H148.264C146.963 90.224 146.312 90.6613 146.312 91.536C146.312 91.9627 146.478 92.2987 146.808 92.544C147.139 92.7893 147.598 92.912 148.184 92.912ZM163.058 82.128V94H161.586V92.656C161.244 93.1253 160.812 93.4827 160.29 93.728C159.767 93.9733 159.191 94.096 158.562 94.096C157.74 94.096 157.004 93.9147 156.354 93.552C155.703 93.1893 155.191 92.6827 154.818 92.032C154.455 91.3707 154.274 90.6133 154.274 89.76C154.274 88.9067 154.455 88.1547 154.818 87.504C155.191 86.8533 155.703 86.3467 156.354 85.984C157.004 85.6213 157.74 85.44 158.562 85.44C159.17 85.44 159.73 85.5573 160.242 85.792C160.754 86.016 161.18 86.352 161.522 86.8V82.128H163.058ZM158.69 92.752C159.223 92.752 159.708 92.6293 160.146 92.384C160.583 92.128 160.924 91.776 161.17 91.328C161.415 90.8693 161.538 90.3467 161.538 89.76C161.538 89.1733 161.415 88.656 161.17 88.208C160.924 87.7493 160.583 87.3973 160.146 87.152C159.708 86.9067 159.223 86.784 158.69 86.784C158.146 86.784 157.655 86.9067 157.218 87.152C156.791 87.3973 156.45 87.7493 156.194 88.208C155.948 88.656 155.826 89.1733 155.826 89.76C155.826 90.3467 155.948 90.8693 156.194 91.328C156.45 91.776 156.791 92.128 157.218 92.384C157.655 92.6293 158.146 92.752 158.69 92.752Z" fill="#3D3D3D"/>
<rect x="125" y="105" width="38" height="38" rx="19" fill="white"/>
<path d="M148.16 128.24V130H139.904V128.608L144.352 124.384C144.853 123.904 145.189 123.488 145.36 123.136C145.541 122.773 145.632 122.416 145.632 122.064C145.632 121.541 145.456 121.141 145.104 120.864C144.752 120.587 144.234 120.448 143.552 120.448C142.41 120.448 141.536 120.837 140.928 121.616L139.472 120.496C139.909 119.909 140.496 119.456 141.232 119.136C141.978 118.805 142.81 118.64 143.728 118.64C144.944 118.64 145.914 118.928 146.64 119.504C147.365 120.08 147.728 120.864 147.728 121.856C147.728 122.464 147.6 123.035 147.344 123.568C147.088 124.101 146.597 124.709 145.872 125.392L142.88 128.24H148.16Z" fill="#3D3D3D"/>
<rect x="125" y="105" width="38" height="38" rx="19" stroke="#D252E1" stroke-width="2"/>
<path d="M145.279 154.8V166H143.695V156.192H141.167V154.8H145.279Z" fill="black"/>
<rect x="181" y="105" width="38" height="38" rx="19" fill="white"/>
<path d="M200.816 123.424C201.85 123.552 202.64 123.904 203.184 124.48C203.728 125.056 204 125.776 204 126.64C204 127.291 203.834 127.883 203.504 128.416C203.173 128.949 202.672 129.376 202 129.696C201.338 130.005 200.528 130.16 199.568 130.16C198.768 130.16 197.994 130.048 197.248 129.824C196.512 129.589 195.882 129.269 195.36 128.864L196.256 127.248C196.661 127.589 197.152 127.861 197.728 128.064C198.314 128.256 198.917 128.352 199.536 128.352C200.272 128.352 200.848 128.203 201.264 127.904C201.69 127.595 201.904 127.179 201.904 126.656C201.904 126.133 201.701 125.728 201.296 125.44C200.901 125.141 200.293 124.992 199.472 124.992H198.448V123.568L200.992 120.544H195.904V118.8H203.536V120.192L200.816 123.424Z" fill="#3D3D3D"/>
<rect x="181" y="105" width="38" height="38" rx="19" stroke="#D252E1" stroke-width="2"/>
<path d="M204.046 164.608V166H195.998V164.912L200.558 160.512C201.113 159.979 201.486 159.52 201.678 159.136C201.87 158.741 201.966 158.347 201.966 157.952C201.966 157.365 201.758 156.912 201.342 156.592C200.937 156.261 200.35 156.096 199.582 156.096C198.345 156.096 197.39 156.501 196.718 157.312L195.63 156.368C196.068 155.835 196.638 155.419 197.342 155.12C198.057 154.821 198.852 154.672 199.726 154.672C200.9 154.672 201.833 154.955 202.526 155.52C203.22 156.075 203.566 156.832 203.566 157.792C203.566 158.389 203.438 158.955 203.182 159.488C202.926 160.021 202.441 160.629 201.726 161.312L198.302 164.608H204.046Z" fill="black"/>
<path d="M193.662 189.504C193.438 189.696 193.16 189.845 192.83 189.952C192.499 190.048 192.158 190.096 191.806 190.096C190.952 190.096 190.291 189.867 189.822 189.408C189.352 188.949 189.118 188.293 189.118 187.44V182.784H187.678V181.52H189.118V179.664H190.654V181.52H193.086V182.784H190.654V187.376C190.654 187.835 190.766 188.187 190.99 188.432C191.224 188.677 191.555 188.8 191.982 188.8C192.451 188.8 192.851 188.667 193.182 188.4L193.662 189.504ZM198.607 181.44C199.78 181.44 200.676 181.728 201.295 182.304C201.924 182.88 202.239 183.739 202.239 184.88V190H200.783V188.88C200.527 189.275 200.159 189.579 199.679 189.792C199.209 189.995 198.649 190.096 197.999 190.096C197.049 190.096 196.287 189.867 195.711 189.408C195.145 188.949 194.863 188.347 194.863 187.6C194.863 186.853 195.135 186.256 195.679 185.808C196.223 185.349 197.087 185.12 198.271 185.12H200.703V184.816C200.703 184.155 200.511 183.648 200.127 183.296C199.743 182.944 199.177 182.768 198.431 182.768C197.929 182.768 197.439 182.853 196.959 183.024C196.479 183.184 196.073 183.403 195.743 183.68L195.103 182.528C195.54 182.176 196.063 181.909 196.671 181.728C197.279 181.536 197.924 181.44 198.607 181.44ZM198.255 188.912C198.841 188.912 199.348 188.784 199.775 188.528C200.201 188.261 200.511 187.888 200.703 187.408V186.224H198.335C197.033 186.224 196.383 186.661 196.383 187.536C196.383 187.963 196.548 188.299 196.879 188.544C197.209 188.789 197.668 188.912 198.255 188.912ZM205.081 181.52H206.617V190H205.081V181.52ZM205.849 179.888C205.55 179.888 205.3 179.792 205.097 179.6C204.905 179.408 204.809 179.173 204.809 178.896C204.809 178.619 204.905 178.384 205.097 178.192C205.3 177.989 205.55 177.888 205.849 177.888C206.148 177.888 206.393 177.984 206.585 178.176C206.788 178.357 206.889 178.587 206.889 178.864C206.889 179.152 206.788 179.397 206.585 179.6C206.393 179.792 206.148 179.888 205.849 179.888ZM209.55 178.128H211.086V190H209.55V178.128Z" fill="#3D3D3D"/>
<rect x="237" y="105" width="38" height="38" rx="19" fill="white"/>
<rect x="237" y="105" width="38" height="38" rx="19" stroke="#0032FF" stroke-width="2"/>
<path d="M256.478 159.504C257.577 159.611 258.414 159.952 258.99 160.528C259.566 161.093 259.854 161.819 259.854 162.704C259.854 163.344 259.694 163.925 259.374 164.448C259.054 164.96 258.574 165.371 257.934 165.68C257.305 165.979 256.531 166.128 255.614 166.128C254.814 166.128 254.046 166.011 253.31 165.776C252.574 165.531 251.971 165.195 251.502 164.768L252.238 163.504C252.622 163.867 253.113 164.16 253.71 164.384C254.307 164.597 254.942 164.704 255.614 164.704C256.446 164.704 257.091 164.528 257.55 164.176C258.019 163.824 258.254 163.339 258.254 162.72C258.254 162.101 258.025 161.621 257.566 161.28C257.107 160.939 256.414 160.768 255.486 160.768H254.59V159.648L257.406 156.192H252.014V154.8H259.406V155.888L256.478 159.504Z" fill="black"/>
<rect x="293" y="105" width="38" height="38" rx="19" fill="white"/>
<rect x="293" y="105" width="38" height="38" rx="19" stroke="#0032FF" stroke-width="2"/>
<path d="M317.66 163.248H315.532V166H313.98V163.248H307.756V162.128L313.484 154.8H315.212L309.724 161.872H314.028V159.44H315.532V161.872H317.66V163.248Z" fill="black"/>
<path d="M20 1H380V-1H20V1ZM399 20V200H401V20H399ZM380 219H20V221H380V219ZM1 200V20H-1V200H1ZM20 219C9.50659 219 1 210.493 1 200H-1C-1 211.598 8.40203 221 20 221V219ZM399 200C399 210.493 390.493 219 380 219V221C391.598 221 401 211.598 401 200H399ZM380 1C390.493 1 399 9.50659 399 20H401C401 8.40202 391.598 -1 380 -1V1ZM20 -1C8.40202 -1 -1 8.40201 -1 20H1C1 9.50658 9.50659 1 20 1V-1Z" fill="#141414"/>
<defs>
<linearGradient id="paint0_linear_527_6668" x1="479" y1="-48" x2="-80.5" y2="263.5" gradientUnits="userSpaceOnUse">
<stop stop-color="#82CEFF"/>
<stop offset="1" stop-color="#FF6B9B"/>
</linearGradient>
</defs>
</svg>
