<svg width="400" height="220" viewBox="0 0 400 220" fill="none" xmlns="http://www.w3.org/2000/svg">
<path d="M0 20C0 8.9543 8.95431 0 20 0H380C391.046 0 400 8.95431 400 20V200C400 211.046 391.046 220 380 220H20C8.95431 220 0 211.046 0 200V20Z" fill="url(#paint0_linear_107_207306)"/>
<rect x="69" y="101" width="38" height="38" rx="19" fill="white"/>
<path d="M92.9794 114.8V126H90.8994V121.2H85.1074V126H83.0274V114.8H85.1074V119.424H90.8994V114.8H92.9794Z" fill="#0032FF"/>
<rect x="69" y="101" width="38" height="38" rx="19" stroke="#0032FF" stroke-width="2"/>
<rect x="125" y="101" width="38" height="38" rx="19" fill="white"/>
<path d="M148.545 124.256V126H140.145V114.8H148.321V116.544H142.225V119.456H147.633V121.168H142.225V124.256H148.545Z" fill="#0032FF"/>
<rect x="125" y="101" width="38" height="38" rx="19" stroke="#0032FF" stroke-width="2"/>
<rect x="181" y="101" width="38" height="38" rx="19" fill="white"/>
<path d="M196.715 114.8H198.795V124.24H204.651V126H196.715V114.8Z" fill="#0032FF"/>
<rect x="181" y="101" width="38" height="38" rx="19" stroke="#0032FF" stroke-width="2"/>
<rect x="237" y="101" width="38" height="38" rx="19" fill="white"/>
<path d="M252.715 114.8H254.795V124.24H260.651V126H252.715V114.8Z" fill="#0032FF"/>
<rect x="237" y="101" width="38" height="38" rx="19" stroke="#0032FF" stroke-width="2"/>
<rect x="293" y="101" width="38" height="38" rx="19" fill="white"/>
<path d="M312.002 126.16C310.86 126.16 309.831 125.915 308.914 125.424C307.996 124.923 307.276 124.235 306.754 123.36C306.231 122.475 305.97 121.488 305.97 120.4C305.97 119.312 306.231 118.331 306.754 117.456C307.276 116.571 307.996 115.883 308.914 115.392C309.831 114.891 310.86 114.64 312.002 114.64C313.143 114.64 314.172 114.891 315.09 115.392C316.007 115.883 316.727 116.565 317.25 117.44C317.772 118.315 318.034 119.301 318.034 120.4C318.034 121.499 317.772 122.485 317.25 123.36C316.727 124.235 316.007 124.923 315.09 125.424C314.172 125.915 313.143 126.16 312.002 126.16ZM312.002 124.336C312.748 124.336 313.42 124.171 314.018 123.84C314.615 123.499 315.084 123.029 315.426 122.432C315.767 121.824 315.938 121.147 315.938 120.4C315.938 119.653 315.767 118.981 315.426 118.384C315.084 117.776 314.615 117.307 314.018 116.976C313.42 116.635 312.748 116.464 312.002 116.464C311.255 116.464 310.583 116.635 309.986 116.976C309.388 117.307 308.919 117.776 308.578 118.384C308.236 118.981 308.066 119.653 308.066 120.4C308.066 121.147 308.236 121.824 308.578 122.432C308.919 123.029 309.388 123.499 309.986 123.84C310.583 124.171 311.255 124.336 312.002 124.336Z" fill="#0032FF"/>
<rect x="293" y="101" width="38" height="38" rx="19" stroke="#0032FF" stroke-width="2"/>
<path d="M173.696 41.18C172.424 41.18 171.272 40.904 170.24 40.352C169.22 39.788 168.416 39.014 167.828 38.03C167.252 37.046 166.964 35.936 166.964 34.7C166.964 33.464 167.258 32.354 167.846 31.37C168.434 30.386 169.238 29.618 170.258 29.066C171.29 28.502 172.442 28.22 173.714 28.22C174.746 28.22 175.688 28.4 176.54 28.76C177.392 29.12 178.112 29.642 178.7 30.326L177.188 31.748C176.276 30.764 175.154 30.272 173.822 30.272C172.958 30.272 172.184 30.464 171.5 30.848C170.816 31.22 170.282 31.742 169.898 32.414C169.514 33.086 169.322 33.848 169.322 34.7C169.322 35.552 169.514 36.314 169.898 36.986C170.282 37.658 170.816 38.186 171.5 38.57C172.184 38.942 172.958 39.128 173.822 39.128C175.154 39.128 176.276 38.63 177.188 37.634L178.7 39.074C178.112 39.758 177.386 40.28 176.522 40.64C175.67 41 174.728 41.18 173.696 41.18ZM187.971 33.296H184.605V41H182.355V33.296H178.971V31.388H187.971V33.296ZM194.931 31.28C195.867 31.28 196.701 31.484 197.433 31.892C198.177 32.3 198.759 32.876 199.179 33.62C199.599 34.364 199.809 35.222 199.809 36.194C199.809 37.166 199.599 38.03 199.179 38.786C198.759 39.53 198.177 40.106 197.433 40.514C196.701 40.922 195.867 41.126 194.931 41.126C193.635 41.126 192.609 40.694 191.853 39.83V44.492H189.603V31.388H191.745V32.648C192.117 32.192 192.573 31.85 193.113 31.622C193.665 31.394 194.271 31.28 194.931 31.28ZM194.679 39.2C195.507 39.2 196.185 38.924 196.713 38.372C197.253 37.82 197.523 37.094 197.523 36.194C197.523 35.294 197.253 34.568 196.713 34.016C196.185 33.464 195.507 33.188 194.679 33.188C194.139 33.188 193.653 33.314 193.221 33.566C192.789 33.806 192.447 34.154 192.195 34.61C191.943 35.066 191.817 35.594 191.817 36.194C191.817 36.794 191.943 37.322 192.195 37.778C192.447 38.234 192.789 38.588 193.221 38.84C193.653 39.08 194.139 39.2 194.679 39.2ZM206.332 41.126C205.36 41.126 204.484 40.916 203.704 40.496C202.924 40.076 202.312 39.494 201.868 38.75C201.436 37.994 201.22 37.142 201.22 36.194C201.22 35.246 201.436 34.4 201.868 33.656C202.312 32.912 202.924 32.33 203.704 31.91C204.484 31.49 205.36 31.28 206.332 31.28C207.316 31.28 208.198 31.49 208.978 31.91C209.758 32.33 210.364 32.912 210.796 33.656C211.24 34.4 211.462 35.246 211.462 36.194C211.462 37.142 211.24 37.994 210.796 38.75C210.364 39.494 209.758 40.076 208.978 40.496C208.198 40.916 207.316 41.126 206.332 41.126ZM206.332 39.2C207.16 39.2 207.844 38.924 208.384 38.372C208.924 37.82 209.194 37.094 209.194 36.194C209.194 35.294 208.924 34.568 208.384 34.016C207.844 33.464 207.16 33.188 206.332 33.188C205.504 33.188 204.82 33.464 204.28 34.016C203.752 34.568 203.488 35.294 203.488 36.194C203.488 37.094 203.752 37.82 204.28 38.372C204.82 38.924 205.504 39.2 206.332 39.2ZM217.681 37.148H215.935V41H213.685V31.388H215.935V35.276H217.735L220.579 31.388H222.991L219.499 36.014L223.225 41H220.579L217.681 37.148ZM228.218 31.28C229.634 31.28 230.714 31.622 231.458 32.306C232.214 32.978 232.592 33.998 232.592 35.366V41H230.468V39.83C230.192 40.25 229.796 40.574 229.28 40.802C228.776 41.018 228.164 41.126 227.444 41.126C226.724 41.126 226.094 41.006 225.554 40.766C225.014 40.514 224.594 40.172 224.294 39.74C224.006 39.296 223.862 38.798 223.862 38.246C223.862 37.382 224.18 36.692 224.816 36.176C225.464 35.648 226.478 35.384 227.858 35.384H230.342V35.24C230.342 34.568 230.138 34.052 229.73 33.692C229.334 33.332 228.74 33.152 227.948 33.152C227.408 33.152 226.874 33.236 226.346 33.404C225.83 33.572 225.392 33.806 225.032 34.106L224.15 32.468C224.654 32.084 225.26 31.79 225.968 31.586C226.676 31.382 227.426 31.28 228.218 31.28ZM227.912 39.488C228.476 39.488 228.974 39.362 229.406 39.11C229.85 38.846 230.162 38.474 230.342 37.994V36.878H228.02C226.724 36.878 226.076 37.304 226.076 38.156C226.076 38.564 226.238 38.888 226.562 39.128C226.886 39.368 227.336 39.488 227.912 39.488Z" fill="#141414"/>
<path d="M20 1H380V-1H20V1ZM399 20V200H401V20H399ZM380 219H20V221H380V219ZM1 200V20H-1V200H1ZM20 219C9.50659 219 1 210.493 1 200H-1C-1 211.598 8.40203 221 20 221V219ZM399 200C399 210.493 390.493 219 380 219V221C391.598 221 401 211.598 401 200H399ZM380 1C390.493 1 399 9.50659 399 20H401C401 8.40202 391.598 -1 380 -1V1ZM20 -1C8.40202 -1 -1 8.40201 -1 20H1C1 9.50658 9.50659 1 20 1V-1Z" fill="#141414"/>
<defs>
<linearGradient id="paint0_linear_107_207306" x1="479" y1="-48" x2="-80.5" y2="263.5" gradientUnits="userSpaceOnUse">
<stop stop-color="#82CEFF"/>
<stop offset="1" stop-color="#FF6B9B"/>
</linearGradient>
</defs>
</svg>
